<svg xmlns="http://www.w3.org/2000/svg" width="256" height="256"><path fill-opacity=".016" d="M0 128.004v128.004l128.25-.254 128.25-.254.254-127.75L257.008 0H0v128.004m.485.496c0 70.4.119 99.053.265 63.672.146-35.38.146-92.98 0-128C.604 29.153.485 58.1.485 128.5" fill="#1976D2" fill-rule="evenodd"/><path fill-opacity=".051" d="M6 48c0 2.667-.333 3-3 3-2.533 0-3 .389-3 2.5C0 55.611.467 56 3 56c2.667 0 3 .333 3 3s-.333 3-3 3-3 .333-3 3 .333 3 3 3c2.533 0 3 .389 3 2.5 0 2.111-.467 2.5-3 2.5-2.667 0-3 .333-3 3s.333 3 3 3 3 .333 3 3-.333 3-3 3-3 .333-3 3 .333 3 3 3c2.533 0 3 .389 3 2.5 0 2.111-.467 2.5-3 2.5-2.667 0-3 .333-3 3s.333 3 3 3 3 .333 3 3-.333 3-3 3c-2.533 0-3 .389-3 2.5 0 2.111.467 2.5 3 2.5 2.667 0 3 .333 3 3s-.333 3-3 3-3 .333-3 3 .333 3 3 3c2.533 0 3 .389 3 2.5 0 2.111-.467 2.5-3 2.5-2.667 0-3 .333-3 3s.333 3 3 3 3 .333 3 3-.333 3-3 3c-2.533 0-3 .389-3 2.5 0 2.111.467 2.5 3 2.5 2.667 0 3 .333 3 3s-.333 3-3 3-3 .333-3 3 .333 3 3 3c2.533 0 3 .389 3 2.5 0 2.111-.467 2.5-3 2.5-2.667 0-3 .333-3 3s.333 3 3 3 3 .333 3 3-.333 3-3 3-3 .333-3 3 .333 3 3 3c2.533 0 3 .389 3 2.5 0 2.111-.467 2.5-3 2.5-2.667 0-3 .333-3 3s.333 3 3 3 3 .333 3 3-.333 3-3 3c-2.533 0-3 .389-3 2.5 0 2.111.467 2.5 3 2.5 2.667 0 3 .333 3 3 0 2.533.389 3 2.5 3 2.111 0 2.5-.467 2.5-3 0-2.667.333-3 3-3s3 .333 3 3 .333 3 3 3 3-.333 3-3c0-2.533.389-3 2.5-3 2.111 0 2.5.467 2.5 3 0 2.667.333 3 3 3s3-.333 3-3 .333-3 3-3 3 .333 3 3 .333 3 3 3 3-.333 3-3c0-2.49.403-3 2.372-3 2.006 0 2.489-.657 3.128-4.25l.756-4.25.901 3.967c.496 2.182 1.826 4.95 2.955 6.152 1.999 2.128 10.587 5.016 11.676 3.926.3-.3-.092-.547-.871-.549-.78-.002.005-.871 1.743-1.93 1.761-1.074 3.701-3.423 4.382-5.304 1.065-2.948 1.585-3.324 4.089-2.956 2.28.335 2.869.934 2.869 2.917 0 2.231-.348 2.455-3.273 2.114-3.169-.37-3.26-.279-2.89 2.89.333 2.854.752 3.273 3.272 3.273 2.546 0 2.891-.359 2.891-3 0-2.533.389-3 2.5-3 2.111 0 2.5.467 2.5 3 0 2.667.333 3 3 3s3-.333 3-3 .333-3 3-3 3 .333 3 3c0 2.533.389 3 2.5 3 2.111 0 2.5-.467 2.5-3 0-2.667.333-3 3-3s3 .333 3 3 .333 3 3 3 3-.333 3-3c0-2.533.389-3 2.5-3 2.111 0 2.5.467 2.5 3 0 2.667.333 3 3 3s3-.333 3-3 .333-3 3-3 3 .333 3 3 .333 3 3 3 3-.333 3-3c0-2.533.389-3 2.5-3 2.111 0 2.5.467 2.5 3 0 2.681.326 3 3.066 3 2.756 0 3.035-.279 2.75-2.75-.248-2.16-.906-2.818-3.066-3.066-2.16-.249-2.75-.839-2.75-2.75 0-1.441.582-2.434 1.427-2.434.784 0 1.632-.787 1.884-1.75.251-.963.509-.218.573 1.655.155 4.548 6.25 10.548 10.871 10.7 1.751.058 3.008-.179 2.793-.527-.215-.348.924-1.386 2.531-2.308 2.89-1.659 2.921-1.651 2.921.777 0 2.059.482 2.453 3 2.453 2.667 0 3-.333 3-3 0-2.533.389-3 2.5-3 2.111 0 2.5.467 2.5 3 0 2.667.333 3 3 3s3-.333 3-3 .333-3 3-3 3 .333 3 3c0 2.533.389 3 2.5 3 2.111 0 2.5-.467 2.5-3 0-2.667.333-3 3-3s3 .333 3 3 .333 3 3 3 3-.333 3-3c0-2.533.389-3 2.5-3 2.111 0 2.5.467 2.5 3 0 2.667.333 3 3 3s3-.333 3-3 .333-3 3-3 3 .333 3 3 .333 3 3 3 3-.333 3-3c0-2.533.389-3 2.5-3 2.111 0 2.5.467 2.5 3 0 2.667.333 3 3 3s3-.333 3-3 .333-3 3-3 3 .333 3 3c0 2.533.389 3 2.5 3 2.099 0 2.5-.471 2.5-2.937 0-2.582.392-2.974 3.25-3.25 2.64-.254 3.306-.792 3.548-2.868.277-2.379.054-2.526-3.25-2.14-3.378.394-3.548.268-3.548-2.632 0-2.706.363-3.081 3.25-3.36 2.809-.271 3.291-.727 3.549-3.368.289-2.954.181-3.041-3.25-2.64-3.245.378-3.549.195-3.549-2.132 0-2.142.516-2.596 3.25-2.86 2.809-.271 3.291-.727 3.549-3.368.289-2.954.181-3.041-3.25-2.64-3.379.394-3.549.268-3.549-2.632 0-2.706.363-3.081 3.25-3.36 2.809-.271 3.291-.727 3.549-3.368.289-2.954.181-3.041-3.25-2.64-3.245.378-3.549.195-3.549-2.132 0-2.142.516-2.596 3.25-2.86 2.809-.271 3.291-.727 3.549-3.368.289-2.954.181-3.041-3.25-2.64-3.379.394-3.549.268-3.549-2.632 0-2.706.363-3.081 3.25-3.36 2.64-.254 3.306-.792 3.548-2.868.277-2.379.054-2.526-3.25-2.14-3.378.394-3.548.268-3.548-2.632 0-2.706.363-3.081 3.25-3.36 2.809-.271 3.291-.727 3.549-3.368.289-2.954.181-3.041-3.25-2.64-3.245.378-3.549.195-3.549-2.132 0-2.142.516-2.596 3.25-2.86 2.809-.271 3.291-.727 3.549-3.368.289-2.954.181-3.041-3.25-2.64-3.379.394-3.549.268-3.549-2.632 0-2.706.363-3.081 3.25-3.36 2.64-.254 3.306-.792 3.548-2.868.277-2.379.054-2.526-3.25-2.14-3.378.394-3.548.268-3.548-2.632 0-2.706.363-3.081 3.25-3.36 2.809-.271 3.291-.727 3.549-3.368.289-2.954.181-3.041-3.25-2.64-3.245.378-3.549.195-3.549-2.132 0-2.142.516-2.596 3.25-2.86 2.809-.271 3.291-.727 3.549-3.368.289-2.954.181-3.041-3.25-2.64-3.379.394-3.549.268-3.549-2.632 0-2.706.363-3.081 3.25-3.36 2.809-.271 3.291-.727 3.549-3.368.289-2.954.181-3.041-3.25-2.64-3.245.378-3.549.195-3.549-2.132 0-2.142.516-2.596 3.25-2.86 2.809-.271 3.291-.727 3.549-3.368.289-2.954.181-3.041-3.25-2.64-3.379.394-3.549.268-3.549-2.632 0-2.706.363-3.081 3.25-3.36 2.64-.254 3.306-.792 3.548-2.868.277-2.379.054-2.526-3.25-2.14-3.392.396-3.548.277-3.548-2.696 0-2.65-.369-3.109-2.5-3.109-2.111 0-2.5.467-2.5 3 0 2.667-.333 3-3 3s-3-.333-3-3-.333-3-3-3-3 .333-3 3c0 2.533-.389 3-2.5 3-2.111 0-2.5-.467-2.5-3 0-2.667-.333-3-3-3s-3 .333-3 3-.333 3-3 3c-2.696 0-3-.318-3-3.136v-3.137l-9.25.604c-5.088.332-10.6.878-12.25 1.215-2.282.464-2.641.356-1.5-.452 1.189-.843.839-1.067-1.691-1.079-3.157-.015-5.349 1.472-3.218 2.182.607.202-1.267.854-4.165 1.447-4.19.859-4.927.83-3.597-.142C182.918 46.608 182.308 45 179 45c-2.667 0-3 .333-3 3 0 2.533-.389 3-2.5 3-2.111 0-2.5-.467-2.5-3 0-2.667-.333-3-3-3s-3 .333-3 3-.333 3-3 3-3-.333-3-3c0-2.533-.389-3-2.5-3-2.111 0-2.5.467-2.5 3 0 2.667-.333 3-3 3s-3-.333-3-3-.333-3-3-3-3 .333-3 3c0 2.533-.389 3-2.5 3-2.111 0-2.5-.467-2.5-3 0-2.667-.333-3-3-3s-3 .333-3 3-.333 3-3 3-3-.333-3-3-.333-3-3-3-3 .333-3 3c0 2.533-.389 3-2.5 3-2.111 0-2.5-.467-2.5-3 0-2.667-.333-3-3-3s-3 .333-3 3-.333 3-3 3-3-.333-3-3c0-2.533-.389-3-2.5-3-2.111 0-2.5.467-2.5 3 0 2.667-.333 3-3 3s-3-.333-3-3-.333-3-3-3-3 .333-3 3c0 2.533-.389 3-2.5 3-2.111 0-2.5-.467-2.5-3 0-2.667-.333-3-3-3s-3 .333-3 3-.333 3-3 3-3-.333-3-3c0-2.533-.389-3-2.5-3-2.111 0-2.5.467-2.5 3 0 2.667-.333 3-3 3s-3-.333-3-3-.333-3-3-3-3 .333-3 3c0 2.533-.389 3-2.5 3-2.111 0-2.5-.467-2.5-3 0-2.667-.333-3-3-3s-3 .333-3 3-.333 3-3 3-3-.333-3-3-.333-3-3-3-3 .333-3 3c0 2.533-.389 3-2.5 3-2.111 0-2.5-.467-2.5-3 0-2.667-.333-3-3-3s-3 .333-3 3-.333 3-3 3-3-.333-3-3c0-2.533-.389-3-2.5-3-2.111 0-2.5.467-2.5 3m208.015 2.177c-.008.923-1.201 2.611-2.65 3.75L208.73 56h3.635c3.354 0 3.635.227 3.635 2.934 0 2.456-.447 2.985-2.75 3.25-2.178.25-2.753.836-2.764 2.816-.011 1.976-.587 2.566-2.75 2.816-2.455.284-2.736.002-2.736-2.75 0-2.604.377-3.066 2.5-3.066 1.97 0 2.5-.507 2.5-2.393 0-2.626-1.742-3.669-5.832-3.491-1.693.074-2.029.283-.918.573 1.06.277 1.75 1.414 1.75 2.884 0 2.05-.484 2.427-3.117 2.427-2.785 0-3.065-.266-2.638-2.5.519-2.715-.217-2.907-5.745-1.5-1.65.42-2.227.817-1.281.882 2.641.181.977 3.118-1.767 3.118-2.638 0-4.118-1.566-2.208-2.336.8-.322.66-.535-.387-.585-.904-.043-1.916.633-2.25 1.503-.867 2.258-.784 2.423.893 1.78 1.135-.436 1.5.18 1.5 2.531 0 2.647.37 3.107 2.5 3.107 2 0 2.5.5 2.5 2.5s-.5 2.5-2.5 2.5-2.5-.5-2.5-2.5c0-1.833-.533-2.5-2-2.5-1.1 0-2.023-.562-2.052-1.25-.028-.687-1.396 2.07-3.039 6.127-1.643 4.058-2.745 7.621-2.448 7.917.296.297.539.014.539-.627 0-.642.675-1.167 1.5-1.167 1.012 0 1.5 1.013 1.5 3.113 0 2.875-.225 3.081-2.931 2.684-2.216-.325-3.048.014-3.407 1.388-.262 1-.109 1.592.338 1.315.447-.277.578.398.29 1.499-.441 1.685-.032 2.001 2.593 2.001 2.658 0 3.117.368 3.117 2.5 0 2.111-.467 2.5-3 2.5-2.291 0-3-.454-3-1.918 0-1.055-.291-2.677-.647-3.604-.513-1.337-.926-1.02-2 1.533C171.639 96.088 171.625 96 174 96c1.556 0 2 .667 2 3 0 2.567-.377 3-2.608 3-2.33 0-2.542-.294-1.987-2.75.759-3.352-.817-1.01-1.85 2.75-.524 1.909-.438 2.145.364 1 .827-1.181 1.054-.808 1.066 1.75.013 2.796.364 3.25 2.515 3.25 2 0 2.5.5 2.5 2.5s-.5 2.5-2.5 2.5c-1.967 0-2.5-.508-2.5-2.383 0-2.86-3.56-4.309-4.3-1.751a37.07 37.07 0 0 1-1.129 3.217c-.535 1.289-.091 1.5 2.386 1.137 2.835-.416 3.043-.234 3.043 2.667 0 2.792-.309 3.113-3 3.113-2.435 0-3.006-.423-3.03-2.25-.03-2.156-.078-2.169-1.16-.303-.846 1.457-.838 2.044.03 2.333.638.213 1.16 1.699 1.16 3.303 0 2.574.352 2.917 3 2.917 2.533 0 3 .389 3 2.5 0 2.111-.467 2.5-3 2.5s-3-.389-3-2.5c0-1.49-.572-2.5-1.417-2.5-.779 0-1.59-.52-1.801-1.155-.212-.636-1.331 1.277-2.487 4.25-1.155 2.973-2.42 6.198-2.809 7.166-.542 1.348-.33 1.616.903 1.143 1.268-.487 1.611.043 1.611 2.489 0 2.786.31 3.107 3 3.107 2.533 0 3 .389 3 2.5 0 2.111-.467 2.5-3 2.5-2.494 0-3-.402-3-2.383 0-1.736-.666-2.511-2.45-2.852-1.496-.286-2.652.057-2.969.883-.888 2.315.528 4.352 3.026 4.352 1.992 0 2.393.502 2.393 3s-.401 3-2.393 3c-4.472 0-3.724 2.666 1.981 7.068 3.008 2.32 6.228 5.504 7.156 7.075 2.259 3.826 5.508 3.894 5.072.107-.261-2.268-.798-2.743-3.066-2.711-2.352.034-2.75-.364-2.75-2.75 0-2.432.384-2.789 3-2.789 2.533 0 3 .389 3 2.5 0 2 .5 2.5 2.5 2.5s2.5-.5 2.5-2.5c0-2.111.467-2.5 3-2.5 2.511 0 3 .396 3 2.434 0 1.911-.59 2.501-2.75 2.75-2.16.248-2.818.906-3.066 3.066-.249 2.16-.839 2.75-2.75 2.75-2.022 0-2.434.493-2.434 2.917 0 1.604-.359 3.066-.797 3.25-.438.183-1.771 2.358-2.961 4.833-1.635 3.4-1.741 3.992-.433 2.423 2.192-2.63 4.191-2.014 4.191 1.292 0 2.386-.249 2.515-3.908 2.024-3.804-.51-6.125.528-6.062 2.711.017.578.489.263 1.05-.7 1.607-2.76 2.92-2.051 2.92 1.577 0 3.127.18 3.3 3 2.886 2.785-.408 3-.217 3 2.674 0 2.654.369 3.113 2.5 3.113 2 0 2.5.5 2.5 2.5 0 2.111.467 2.5 3 2.5s3-.389 3-2.5c0-2.111.467-2.5 3-2.5s3 .389 3 2.5c0 2 .5 2.5 2.5 2.5s2.5-.5 2.5-2.5c0-2.111.467-2.5 3-2.5s3 .389 3 2.5c0 2.111.467 2.5 3 2.5s3-.389 3-2.5c0-2 .5-2.5 2.5-2.5 2.111 0 2.5-.467 2.5-3 0-2.667.333-3 3-3 2.652 0 3 .341 3 2.934 0 2.456-.447 2.985-2.75 3.25-1.978.227-2.75.878-2.75 2.316 0 1.438.772 2.089 2.75 2.316 2.368.273 2.75-.04 2.75-2.25 0-2.184.446-2.566 3-2.566 2.533 0 3 .389 3 2.5 0 2.111.467 2.5 3 2.5s3-.389 3-2.5c0-2 .5-2.5 2.5-2.5s2.5.5 2.5 2.5c0 2.111.467 2.5 3 2.5 2.511 0 3-.396 3-2.434 0-1.911.59-2.501 2.75-2.75 2.16-.248 2.818-.906 3.066-3.066.249-2.16.839-2.75 2.75-2.75 2.038 0 2.434-.489 2.434-3 0-2.533-.389-3-2.5-3-2 0-2.5-.5-2.5-2.5s.5-2.5 2.5-2.5c2.111 0 2.5-.467 2.5-3s-.389-3-2.5-3c-2.111 0-2.5-.467-2.5-3s.389-3 2.5-3c2.111 0 2.5-.467 2.5-3s-.389-3-2.5-3c-2 0-2.5-.5-2.5-2.5s.5-2.5 2.5-2.5c2.111 0 2.5-.467 2.5-3s-.389-3-2.5-3c-2.111 0-2.5-.467-2.5-3s.389-3 2.5-3c2 0 2.5-.5 2.5-2.5s-.5-2.5-2.5-2.5c-2.111 0-2.5-.467-2.5-3s.389-3 2.5-3c2.111 0 2.5-.467 2.5-3s-.389-3-2.5-3c-2 0-2.5-.5-2.5-2.5s.5-2.5 2.5-2.5c2.111 0 2.5-.467 2.5-3s-.389-3-2.5-3c-2.111 0-2.5-.467-2.5-3s.389-3 2.5-3c2 0 2.5-.5 2.5-2.5s-.5-2.5-2.5-2.5c-2.111 0-2.5-.467-2.5-3s.389-3 2.5-3c2.111 0 2.5-.467 2.5-3s-.389-3-2.5-3c-2 0-2.5-.5-2.5-2.5s.5-2.5 2.5-2.5c2.111 0 2.5-.467 2.5-3s-.389-3-2.5-3c-2.111 0-2.5-.467-2.5-3s.389-3 2.5-3c2.111 0 2.5-.467 2.5-3s-.389-3-2.5-3c-2 0-2.5-.5-2.5-2.5s.5-2.5 2.5-2.5c2.111 0 2.5-.467 2.5-3s-.389-3-2.5-3c-2.111 0-2.5-.467-2.5-3s.389-3 2.5-3c2 0 2.5-.5 2.5-2.5s-.5-2.5-2.5-2.5-2.5.5-2.5 2.5c0 2.111-.467 2.5-3 2.5s-3-.389-3-2.5c0-2.111-.467-2.5-3-2.5s-3 .389-3 2.5c0 2-.5 2.5-2.5 2.5-2.111 0-2.5.467-2.5 3 0 2.667-.333 3-3 3-2.652 0-3-.341-3-2.934 0-2.456.447-2.985 2.75-3.25 1.969-.226 2.841-.955 3.07-2.566.271-1.914-.139-2.25-2.75-2.25-2.608 0-3.07.376-3.07 2.5 0 2.111-.467 2.5-3 2.5-2.44 0-3.003-.42-3.015-2.25-.009-1.237-.452-2.925-.985-3.75-.837-1.295-.971-1.271-.985.177M.195 53.5c.02 1.65.244 2.204.498 1.231.254-.973.237-2.323-.037-3-.274-.677-.481.119-.461 1.769M6 53.5c0 2 .5 2.5 2.5 2.5 2.111 0 2.5.467 2.5 3s-.389 3-2.5 3c-2.111 0-2.5.467-2.5 3s.389 3 2.5 3c2 0 2.5.5 2.5 2.5S10.5 73 8.5 73c-2.111 0-2.5.467-2.5 3s.389 3 2.5 3c2.111 0 2.5.467 2.5 3s-.389 3-2.5 3c-2.111 0-2.5.467-2.5 3s.389 3 2.5 3c2 0 2.5.5 2.5 2.5S10.5 96 8.5 96c-2.111 0-2.5.467-2.5 3s.389 3 2.5 3c2.111 0 2.5.467 2.5 3s-.389 3-2.5 3c-2 0-2.5.5-2.5 2.5s.5 2.5 2.5 2.5c2.111 0 2.5.467 2.5 3s-.389 3-2.5 3c-2.111 0-2.5.467-2.5 3s.389 3 2.5 3c2 0 2.5.5 2.5 2.5s-.5 2.5-2.5 2.5c-2.111 0-2.5.467-2.5 3s.389 3 2.5 3c2.111 0 2.5.467 2.5 3s-.389 3-2.5 3c-2 0-2.5.5-2.5 2.5s.5 2.5 2.5 2.5c2.111 0 2.5.467 2.5 3s-.389 3-2.5 3c-2.111 0-2.5.467-2.5 3s.389 3 2.5 3c2 0 2.5.5 2.5 2.5s-.5 2.5-2.5 2.5c-2.111 0-2.5.467-2.5 3s.389 3 2.5 3c2.111 0 2.5.467 2.5 3s-.389 3-2.5 3c-2.111 0-2.5.467-2.5 3s.389 3 2.5 3c2 0 2.5.5 2.5 2.5s-.5 2.5-2.5 2.5c-2.111 0-2.5.467-2.5 3s.389 3 2.5 3c2.111 0 2.5.467 2.5 3s-.389 3-2.5 3c-2 0-2.5.5-2.5 2.5s.5 2.5 2.5 2.5 2.5-.5 2.5-2.5c0-2.111.467-2.5 3-2.5s3 .389 3 2.5c0 2.111.467 2.5 3 2.5s3-.389 3-2.5c0-2 .5-2.5 2.5-2.5s2.5.5 2.5 2.5c0 2.111.467 2.5 3 2.5s3-.389 3-2.5c0-2.111.467-2.5 3-2.5s3 .389 3 2.5c0 2 .5 2.5 2.5 2.5s2.5-.5 2.5-2.5-.5-2.5-2.5-2.5c-2.111 0-2.5-.467-2.5-3s.389-3 2.5-3c1.375 0 2.533-.338 2.574-.75.041-.412.263-1.763.494-3 .359-1.926-.012-2.25-2.574-2.25-2.527 0-2.994-.39-2.994-2.5 0-1.977.506-2.5 2.417-2.5 1.329 0 2.596.54 2.816 1.199.246.738.659.525 1.072-.551.402-1.048.275-1.506-.316-1.141-.57.352-.989-.687-.989-2.448 0-2.596-.378-3.059-2.5-3.059-2.111 0-2.5-.467-2.5-3s.389-3 2.5-3c2.111 0 2.5-.467 2.5-3s-.389-3-2.5-3c-2 0-2.5-.5-2.5-2.5s.5-2.5 2.5-2.5c2.111 0 2.5-.467 2.5-3s-.389-3-2.5-3c-2.111 0-2.5-.467-2.5-3s.389-3 2.5-3c2 0 2.5-.5 2.5-2.5s-.5-2.5-2.5-2.5c-2.111 0-2.5-.467-2.5-3s.389-3 2.5-3c2.111 0 2.5-.467 2.5-3s-.389-3-2.5-3c-3.547 0-3.611-4.555-.073-5.231 2.238-.428 2.48-.08 3.103 4.448.371 2.701.886 4.7 1.144 4.442.258-.257-.336-6.924-1.318-14.814-.983-7.89-1.948-13.558-2.145-12.595-.197.963-1 1.75-1.784 1.75-.855 0-1.427 1.002-1.427 2.5 0 2.111-.467 2.5-3 2.5s-3-.389-3-2.5c0-2.111.467-2.5 3-2.5 2.667 0 3-.333 3-3 0-2 .5-3 1.5-3s1.5-1 1.5-3-.5-3-1.5-3c-.933 0-1.5-.944-1.5-2.5 0-2.111-.467-2.5-3-2.5-2.667 0-3-.333-3-3 0-2.637.348-3 2.872-3 2.604 0 2.937.398 3.568 4.25l.695 4.25 1.334-3.13c.733-1.721 1.775-3.403 2.315-3.737.54-.333 5.872-.695 11.849-.803 5.977-.108 9.854-.371 8.617-.583-1.734-.298-2.25-1.059-2.25-3.317 0-2.459.402-2.93 2.5-2.93 2.115 0 2.5.465 2.5 3.021v3.021l19.75-.271 19.75-.271.316-2.75c.268-2.33.783-2.75 3.367-2.75 2.714 0 2.998.275 2.572 2.5l-.478 2.5H142v-2.5c0-2.111.467-2.5 3-2.5 2.333 0 3 .444 3 2s.667 2 3 2 3-.444 3-2-.667-2-3-2c-2.667 0-3-.333-3-3s.333-3 3-3 3 .333 3 3c0 2.533.389 3 2.5 3 2.111 0 2.5-.467 2.5-3 0-2.667.333-3 3-3 2.653 0 3 .34 3 2.941 0 3.36 1.524 4.901 2.273 2.298.275-.957.831-2.545 1.236-3.53.405-.985.344-1.719-.136-1.631-2.421.441-3.373-.318-3.373-2.691 0-2.328.324-2.566 2.962-2.179 3.238.475 4.233-.746 3.353-4.112-.397-1.517-1.345-2.096-3.432-2.096-2.537 0-2.883-.36-2.883-3 0-2.667.333-3 3-3s3 .333 3 3c0 4.024 2.48 3.93 3.902-.149.604-1.732 1.098-3.245 1.098-3.362 0-.116-1.125.003-2.5.266-2.151.412-2.5.113-2.5-2.138 0-2.241-.431-2.617-3-2.617-2.533 0-3 .389-3 2.5 0 2.111-.467 2.5-3 2.5s-3-.389-3-2.5c0-2-.5-2.5-2.5-2.5s-2.5.5-2.5 2.5c0 2.111-.467 2.5-3 2.5s-3-.389-3-2.5c0-2.111-.467-2.5-3-2.5s-3 .389-3 2.5c0 2-.5 2.5-2.5 2.5-2.111 0-2.5.467-2.5 3 0 2.667-.333 3-3 3-2.652 0-3-.341-3-2.934 0-2.456.447-2.985 2.75-3.25 1.978-.227 2.75-.878 2.75-2.316 0-1.438-.772-2.089-2.75-2.316-2.368-.273-2.75.04-2.75 2.25 0 2.184-.446 2.566-3 2.566-2.533 0-3-.389-3-2.5 0-2.111-.467-2.5-3-2.5s-3 .389-3 2.5c0 2-.5 2.5-2.5 2.5s-2.5-.5-2.5-2.5c0-2.111-.467-2.5-3-2.5s-3 .389-3 2.5c0 2.111-.467 2.5-3 2.5s-3-.389-3-2.5c0-2-.5-2.5-2.5-2.5s-2.5.5-2.5 2.5c0 2.111-.467 2.5-3 2.5s-3-.389-3-2.5c0-2.111-.467-2.5-3-2.5s-3 .389-3 2.5c0 2-.5 2.5-2.5 2.5s-2.5-.5-2.5-2.5c0-2.111-.467-2.5-3-2.5s-3 .389-3 2.5c0 2.111-.467 2.5-3 2.5s-3-.389-3-2.5c0-2-.5-2.5-2.5-2.5s-2.5.5-2.5 2.5c0 2.111-.467 2.5-3 2.5s-3-.389-3-2.5c0-2.111-.467-2.5-3-2.5s-3 .389-3 2.5c0 1.982-.504 2.5-2.434 2.5-1.911 0-2.501.59-2.75 2.75-.248 2.16-.906 2.818-3.066 3.066-2.471.285-2.75.006-2.75-2.75 0-2.604.377-3.066 2.5-3.066 2 0 2.5-.5 2.5-2.5s-.5-2.5-2.5-2.5-2.5.5-2.5 2.5c0 2.111-.467 2.5-3 2.5s-3-.389-3-2.5c0-2.111-.467-2.5-3-2.5s-3 .389-3 2.5c0 2-.5 2.5-2.5 2.5s-2.5-.5-2.5-2.5c0-2.111-.467-2.5-3-2.5s-3 .389-3 2.5c0 2.111-.467 2.5-3 2.5s-3-.389-3-2.5c0-2-.5-2.5-2.5-2.5S6 51.5 6 53.5m170.459-1.433c-.363.586-.445 1.281-.183 1.543s.743-.218 1.069-1.067c.676-1.762.1-2.072-.886-.476M17 59c0 2.667-.333 3-3 3s-3 .333-3 3 .333 3 3 3c2.533 0 3 .389 3 2.5 0 2.111-.467 2.5-3 2.5-2.667 0-3 .333-3 3s.333 3 3 3 3 .333 3 3-.333 3-3 3-3 .333-3 3 .333 3 3 3c2.533 0 3 .389 3 2.5 0 2.111-.467 2.5-3 2.5-2.667 0-3 .333-3 3s.333 3 3 3 3 .333 3 3-.333 3-3 3c-2.533 0-3 .389-3 2.5 0 2.111.467 2.5 3 2.5 2.667 0 3 .333 3 3s-.333 3-3 3-3 .333-3 3 .333 3 3 3c2.533 0 3 .389 3 2.5 0 2.111-.467 2.5-3 2.5-2.667 0-3 .333-3 3s.333 3 3 3 3 .333 3 3-.333 3-3 3c-2.533 0-3 .389-3 2.5 0 2.111.467 2.5 3 2.5 2.667 0 3 .333 3 3s-.333 3-3 3-3 .333-3 3 .333 3 3 3c2.533 0 3 .389 3 2.5 0 2.111-.467 2.5-3 2.5-2.667 0-3 .333-3 3s.333 3 3 3 3 .333 3 3-.333 3-3 3-3 .333-3 3 .333 3 3 3c2.533 0 3 .389 3 2.5 0 2.111-.467 2.5-3 2.5-2.667 0-3 .333-3 3s.333 3 3 3 3 .333 3 3 .333 3 3 3 3-.333 3-3c0-2.533.389-3 2.5-3 2.111 0 2.5.467 2.5 3 0 2.667.333 3 3 3s3-.333 3-3 .333-3 3-3 3-.333 3-3-.333-3-3-3c-2.533 0-3-.389-3-2.5 0-2.111.467-2.5 3-2.5 2.667 0 3-.333 3-3s-.333-3-3-3-3-.333-3-3 .333-3 3-3 3-.333 3-3-.333-3-3-3c-2.533 0-3-.389-3-2.5 0-2.111.467-2.5 3-2.5 2.667 0 3-.333 3-3s-.333-3-3-3-3-.333-3-3 .333-3 3-3c2.533 0 3-.389 3-2.5 0-2.111-.467-2.5-3-2.5-2.667 0-3-.333-3-3s.333-3 3-3 3-.333 3-3-.333-3-3-3c-2.533 0-3-.389-3-2.5 0-2.111.467-2.5 3-2.5 2.667 0 3-.333 3-3 0-2.333.444-3 2-3s2-.667 2-3-.444-3-2-3-2 .667-2 3c0 2.667-.333 3-3 3s-3-.333-3-3-.333-3-3-3c-2.533 0-3-.389-3-2.5 0-2.111.467-2.5 3-2.5 2.667 0 3-.333 3-3s.333-3 3-3 3-.333 3-3-.333-3-3-3c-2.511 0-3-.396-3-2.434 0-1.911-.59-2.501-2.75-2.75-2.16-.248-2.818-.906-3.066-3.066-.285-2.471-.006-2.75 2.75-2.75 2.74 0 3.066-.319 3.066-3 0-2.667.333-3 3-3s3 .333 3 3 .333 3 3 3 3-.333 3-3c0-2.533.389-3 2.5-3 2.111 0 2.5.467 2.5 3 0 2.667.333 3 3 3s3-.333 3-3 .333-3 3-3 3-.333 3-3c0-2.533.389-3 2.5-3 2.111 0 2.5.467 2.5 3 0 2.667.333 3 3 3 2.533 0 3 .389 3 2.5 0 2.111.467 2.5 3 2.5s3-.389 3-2.5c0-2 .5-2.5 2.5-2.5s2.5.5 2.5 2.5c0 2.111.467 2.5 3 2.5s3-.389 3-2.5c0-2.111.467-2.5 3-2.5s3 .389 3 2.5c0 2 .5 2.5 2.5 2.5s2.5-.5 2.5-2.5c0-2.111.467-2.5 3-2.5 2.667 0 3-.333 3-3s.333-3 3-3 3 .333 3 3c0 2.533.389 3 2.5 3 1.833 0 2.5.533 2.5 2 0 1.556.667 2 3 2s3-.444 3-2 .667-2 3-2 3 .444 3 2 .667 2 3 2 3-.444 3-2c0-1.467.667-2 2.5-2 2.111 0 2.5-.467 2.5-3 0-2.667.333-3 3-3 2.533 0 3-.389 3-2.5 0-2.111.467-2.5 3-2.5s3 .389 3 2.5c0 2 .5 2.5 2.5 2.5s2.5-.5 2.5-2.5c0-2.111.467-2.5 3-2.5 2.667 0 3-.333 3-3s-.333-3-3-3-3-.333-3-3c0-2.533-.389-3-2.5-3-2.111 0-2.5.467-2.5 3 0 2.667-.333 3-3 3s-3-.333-3-3-.333-3-3-3-3 .333-3 3c0 2.494-.402 3-2.383 3-1.743 0-2.511.666-2.857 2.476-.572 2.989-.131 3.524 2.907 3.524 1.822 0 2.333.548 2.333 2.5 0 2-.5 2.5-2.5 2.5s-2.5-.5-2.5-2.5c0-2.111-.467-2.5-3-2.5-2.667 0-3-.333-3-3s-.333-3-3-3-3-.333-3-3-.333-3-3-3-3 .333-3 3c0 2.533-.389 3-2.5 3-2.111 0-2.5-.467-2.5-3 0-2.667-.333-3-3-3s-3 .333-3 3-.333 3-3 3-3-.333-3-3c0-2.533-.389-3-2.5-3-2.111 0-2.5.467-2.5 3 0 2.667-.333 3-3 3s-3-.333-3-3-.333-3-3-3-3 .333-3 3c0 2.533-.389 3-2.5 3-2.111 0-2.5-.467-2.5-3 0-2.667-.333-3-3-3s-3 .333-3 3-.333 3-3 3-3-.333-3-3c0-2.533-.389-3-2.5-3-2.111 0-2.5.467-2.5 3 0 2.667-.333 3-3 3s-3-.333-3-3-.333-3-3-3-3 .333-3 3-.333 3-3 3-3 .333-3 3c0 2.533-.389 3-2.5 3-2.111 0-2.5-.467-2.5-3 0-2.667-.333-3-3-3s-3-.333-3-3-.333-3-3-3-3 .333-3 3c0 2.533-.389 3-2.5 3-2.111 0-2.5-.467-2.5-3 0-2.667-.333-3-3-3s-3 .333-3 3m216 0c0 2.533-.389 3-2.5 3-2.111 0-2.5.467-2.5 3 0 2.667-.333 3-3 3s-3-.333-3-3-.333-3-3-3-3 .333-3 3-.333 3-3 3c-2.533 0-3 .389-3 2.5 0 2-.5 2.5-2.5 2.5s-2.5-.5-2.5-2.5c0-2.111-.467-2.5-3-2.5-2.667 0-3-.333-3-3s-.333-3-3-3-3 .333-3 3 .333 3 3 3c2.533 0 3 .389 3 2.5 0 2.111-.467 2.5-3 2.5-2.667 0-3 .333-3 3 0 2.533-.389 3-2.5 3-2.111 0-2.5-.467-2.5-3 0-2.667-.333-3-3-3s-3 .333-3 3 .333 3 3 3 3 .333 3 3-.333 3-3 3-3 .333-3 3 .333 3 3 3c2.533 0 3 .389 3 2.5 0 2.111-.467 2.5-3 2.5-2.667 0-3 .333-3 3s-.333 3-3 3-3 .333-3 3 .333 3 3 3c2.533 0 3 .389 3 2.5 0 2.111-.467 2.5-3 2.5-2.667 0-3 .333-3 3 0 2.533-.389 3-2.5 3-2.111 0-2.5.467-2.5 3s.389 3 2.5 3c2 0 2.5.5 2.5 2.5s-.5 2.5-2.5 2.5c-2.111 0-2.5.467-2.5 3 0 2.667-.333 3-3 3s-3-.333-3-3-.333-3-3-3-3 .333-3 3 .333 3 3 3 3 .333 3 3 .333 3 3 3c2.533 0 3 .389 3 2.5 0 2.111-.467 2.5-3 2.5-2.667 0-3 .333-3 3s-.333 3-3 3c-2.732 0-3 .297-3 3.327 0 3.127.18 3.3 3 2.886 2.539-.372 3-.884 3-3.326 0-2.541.36-2.887 3-2.887 2.667 0 3 .333 3 3 0 2.533.389 3 2.5 3 2.111 0 2.5-.467 2.5-3 0-2.667.333-3 3-3s3 .333 3 3 .333 3 3 3c2.533 0 3 .389 3 2.5 0 2.111-.467 2.5-3 2.5-2.667 0-3 .333-3 3s-.333 3-3 3-3 .333-3 3c0 2.533-.389 3-2.5 3-2.111 0-2.5.467-2.5 3s.389 3 2.5 3c2 0 2.5.5 2.5 2.5s-.5 2.5-2.5 2.5c-2.111 0-2.5.467-2.5 3s.389 3 2.5 3c2.111 0 2.5.467 2.5 3 0 2.667.333 3 3 3s3-.333 3-3 .333-3 3-3 3 .333 3 3c0 2.533.389 3 2.5 3 2.111 0 2.5-.467 2.5-3 0-2.667.333-3 3-3s3 .333 3 3 .333 3 3 3c2.652 0 3-.341 3-2.934 0-2.456.447-2.985 2.75-3.25 1.578-.181 2.792-.955 2.848-1.816.233-3.586.533-4 2.902-4 2.111 0 2.5.467 2.5 3 0 2.667.333 3 3 3s3 .333 3 3 .333 3 3 3 3-.333 3-3c0-2.533.389-3 2.5-3 2.111 0 2.5.467 2.5 3 0 2.667.333 3 3 3s3-.333 3-3 .333-3 3-3 3-.333 3-3-.333-3-3-3c-2.533 0-3-.389-3-2.5 0-2.111.467-2.5 3-2.5 2.667 0 3-.333 3-3s-.333-3-3-3-3-.333-3-3 .333-3 3-3 3-.333 3-3-.333-3-3-3c-2.533 0-3-.389-3-2.5 0-2.111.467-2.5 3-2.5 2.667 0 3-.333 3-3s-.333-3-3-3-3-.333-3-3 .333-3 3-3c2.533 0 3-.389 3-2.5 0-2.111-.467-2.5-3-2.5-2.667 0-3-.333-3-3s.333-3 3-3 3-.333 3-3-.333-3-3-3c-2.533 0-3-.389-3-2.5 0-2.111.467-2.5 3-2.5 2.667 0 3-.333 3-3s-.333-3-3-3-3-.333-3-3 .333-3 3-3c2.533 0 3-.389 3-2.5 0-2.111-.467-2.5-3-2.5-2.667 0-3-.333-3-3s.333-3 3-3 3-.333 3-3-.333-3-3-3c-2.533 0-3-.389-3-2.5 0-2.111.467-2.5 3-2.5 2.667 0 3-.333 3-3s-.333-3-3-3-3-.333-3-3 .333-3 3-3 3-.333 3-3-.333-3-3-3c-2.533 0-3-.389-3-2.5 0-2.111.467-2.5 3-2.5 2.667 0 3-.333 3-3s-.333-3-3-3-3-.333-3-3-.333-3-3-3-3 .333-3 3M.232 65c0 1.925.206 2.713.457 1.75.252-.963.252-2.537 0-3.5-.251-.962-.457-.175-.457 1.75M17 65c0 2.667.333 3 3 3 2.533 0 3 .389 3 2.5 0 2.111-.467 2.5-3 2.5-2.667 0-3 .333-3 3s.333 3 3 3 3 .333 3 3-.333 3-3 3-3 .333-3 3 .333 3 3 3c2.533 0 3 .389 3 2.5 0 2.111-.467 2.5-3 2.5-2.667 0-3 .333-3 3s.333 3 3 3 3 .333 3 3-.333 3-3 3c-2.533 0-3 .389-3 2.5 0 2.111.467 2.5 3 2.5 2.667 0 3 .333 3 3s-.333 3-3 3-3 .333-3 3 .333 3 3 3c2.533 0 3 .389 3 2.5 0 2.111-.467 2.5-3 2.5-2.667 0-3 .333-3 3s.333 3 3 3 3 .333 3 3-.333 3-3 3c-2.533 0-3 .389-3 2.5 0 2.111.467 2.5 3 2.5 2.667 0 3 .333 3 3s-.333 3-3 3-3 .333-3 3 .333 3 3 3c2.533 0 3 .389 3 2.5 0 2.111-.467 2.5-3 2.5-2.667 0-3 .333-3 3s.333 3 3 3 3 .333 3 3-.333 3-3 3-3 .333-3 3 .333 3 3 3c2.533 0 3 .389 3 2.5 0 2.111-.467 2.5-3 2.5-2.667 0-3 .333-3 3s.333 3 3 3 3-.333 3-3c0-2.533.389-3 2.5-3 2.111 0 2.5.467 2.5 3 0 2.667.333 3 3 3s3-.333 3-3-.333-3-3-3c-2.533 0-3-.389-3-2.5 0-2-.5-2.5-2.5-2.5-2.111 0-2.5-.467-2.5-3 0-2.511.396-3 2.434-3 1.911 0 2.501.59 2.75 2.75.248 2.16.906 2.818 3.066 3.066 2.471.285 2.75.006 2.75-2.75 0-2.74-.319-3.066-3-3.066-2.667 0-3-.333-3-3s.333-3 3-3c2.681 0 3-.326 3-3.066 0-2.756-.279-3.035-2.75-2.75-2.16.248-2.818.906-3.066 3.066-.249 2.16-.839 2.75-2.75 2.75-2.038 0-2.434-.489-2.434-3 0-2.533.389-3 2.5-3 2 0 2.5-.5 2.5-2.5 0-2.111.467-2.5 3-2.5 2.667 0 3-.333 3-3s-.333-3-3-3-3-.333-3-3 .333-3 3-3c2.533 0 3-.389 3-2.5 0-2.111-.467-2.5-3-2.5-2.667 0-3-.333-3-3s.333-3 3-3 3-.333 3-3-.333-3-3-3c-2.533 0-3-.389-3-2.5 0-2.111.467-2.5 3-2.5 2.667 0 3-.333 3-3s-.333-3-3-3-3-.333-3-3c0-2.533-.389-3-2.5-3-2 0-2.5-.5-2.5-2.5s.5-2.5 2.5-2.5c2.111 0 2.5-.467 2.5-3 0-2.667.333-3 3-3s3-.333 3-3-.333-3-3-3c-2.533 0-3-.389-3-2.5 0-2-.5-2.5-2.5-2.5-2.111 0-2.5-.467-2.5-3s.389-3 2.5-3c2.111 0 2.5-.467 2.5-3 0-2.667.333-3 3-3s3-.333 3-3 .333-3 3-3 3 .333 3 3c0 2.533.389 3 2.5 3 2.111 0 2.5-.467 2.5-3s-.389-3-2.5-3c-2 0-2.5-.5-2.5-2.5 0-2.111-.467-2.5-3-2.5-2.667 0-3-.333-3-3s-.333-3-3-3-3 .333-3 3c0 2.533-.389 3-2.5 3-2.111 0-2.5-.467-2.5-3 0-2.667-.333-3-3-3s-3 .333-3 3m34 0c0 2.533-.389 3-2.5 3-2 0-2.5.5-2.5 2.5s.5 2.5 2.5 2.5c2.111 0 2.5.467 2.5 3 0 2.667.333 3 3 3s3-.333 3-3 .333-3 3-3c2.533 0 3-.389 3-2.5 0-2 .5-2.5 2.5-2.5s2.5.5 2.5 2.5c0 2.111.467 2.5 3 2.5 2.667 0 3 .333 3 3s.333 3 3 3 3-.333 3-3c0-2.533.389-3 2.5-3 2 0 2.5-.5 2.5-2.5 0-2.111.467-2.5 3-2.5 2.511 0 3 .396 3 2.434 0 1.911-.59 2.501-2.75 2.75-2.16.248-2.818.906-3.066 3.066-.285 2.471-.006 2.75 2.75 2.75 2.74 0 3.066-.319 3.066-3 0-2.667.333-3 3-3s3 .333 3 3c0 2.533.389 3 2.5 3 2.111 0 2.5-.467 2.5-3 0-2.667.333-3 3-3 2.533 0 3-.389 3-2.5 0-2.111.467-2.5 3-2.5s3 .389 3 2.5c0 2 .5 2.5 2.5 2.5s2.5-.5 2.5-2.5c0-2.111.467-2.5 3-2.5 2.511 0 3 .396 3 2.434 0 1.911-.59 2.501-2.75 2.75-2.16.248-2.818.906-3.066 3.066-.285 2.471-.006 2.75 2.75 2.75 2.74 0 3.066-.319 3.066-3 0-2.667.333-3 3-3s3 .333 3 3 .333 3 3 3c1.923 0 3-.509 3-1.418 0-2.94-1.292-4.582-3.607-4.582-1.886 0-2.393-.53-2.393-2.5 0-2.111-.467-2.5-3-2.5-2.667 0-3-.333-3-3s-.333-3-3-3-3 .333-3 3c0 2.533-.389 3-2.5 3-2.111 0-2.5-.467-2.5-3 0-2.667-.333-3-3-3s-3 .333-3 3-.333 3-3 3-3-.333-3-3c0-2.533-.389-3-2.5-3-2.111 0-2.5.467-2.5 3 0 2.667-.333 3-3 3s-3-.333-3-3-.333-3-3-3-3 .333-3 3c0 2.533-.389 3-2.5 3-2.111 0-2.5-.467-2.5-3 0-2.667-.333-3-3-3s-3 .333-3 3-.333 3-3 3-3-.333-3-3c0-2.533-.389-3-2.5-3-2.111 0-2.5.467-2.5 3 0 2.667-.333 3-3 3s-3-.333-3-3-.333-3-3-3-3 .333-3 3m91 0c0 2.667.333 3 3 3s3-.333 3-3-.333-3-3-3-3 .333-3 3m12 0c0 2.533.389 3 2.5 3 2.111 0 2.5-.467 2.5-3s-.389-3-2.5-3c-2.111 0-2.5.467-2.5 3m79 0c0 2.533-.389 3-2.5 3-2 0-2.5.5-2.5 2.5 0 2.111-.467 2.5-3 2.5s-3-.389-3-2.5c0-2.111-.467-2.5-3-2.5s-3 .389-3 2.5c0 2.007-.498 2.5-2.525 2.5-2.006 0-2.648.617-3.125 3-.465 2.323-1.136 3-2.975 3-1.972 0-2.375-.509-2.375-3 0-2.667-.333-3-3-3s-3 .333-3 3-.333 3-3 3-3 .333-3 3c0 2.533-.389 3-2.5 3-2.111 0-2.5.467-2.5 3s.389 3 2.5 3c2 0 2.5.5 2.5 2.5s-.5 2.5-2.5 2.5c-2.111 0-2.5.467-2.5 3 0 2.667-.333 3-3 3s-3 .333-3 3 .333 3 3 3c2.533 0 3 .389 3 2.5 0 2.111-.467 2.5-3 2.5-2.667 0-3 .333-3 3s-.333 3-3 3-3 .333-3 3 .333 3 3 3c2.533 0 3 .389 3 2.5 0 2.111-.467 2.5-3 2.5-2.667 0-3 .333-3 3 0 2.533-.389 3-2.5 3-2.111 0-2.5.467-2.5 3s.389 3 2.5 3c2 0 2.5.5 2.5 2.5s-.5 2.5-2.5 2.5c-2.111 0-2.5.467-2.5 3s.389 3 2.5 3c2.111 0 2.5-.467 2.5-3 0-2.667.333-3 3-3s3 .333 3 3 .333 3 3 3 3 .333 3 3c0 2.533.389 3 2.5 3 2 0 2.5.5 2.5 2.5s-.5 2.5-2.5 2.5c-2.111 0-2.5.467-2.5 3 0 2.667-.333 3-3 3s-3 .333-3 3-.333 3-3 3-3 .333-3 3 .333 3 3 3c2.533 0 3 .389 3 2.5 0 2.111-.467 2.5-3 2.5-2.667 0-3 .333-3 3s.333 3 3 3 3-.333 3-3 .333-3 3-3 3 .333 3 3c0 2.533.389 3 2.5 3 2.111 0 2.5-.467 2.5-3 0-2.667.333-3 3-3s3 .333 3 3 .333 3 3 3 3-.333 3-3c0-2.533.389-3 2.5-3 2 0 2.5-.5 2.5-2.5s-.5-2.5-2.5-2.5c-2.111 0-2.5-.467-2.5-3 0-2.491.403-3 2.375-3 1.839 0 2.51.677 2.975 3 .477 2.383 1.119 3 3.125 3 2.027 0 2.525.493 2.525 2.5 0 2.111.467 2.5 3 2.5 2.667 0 3 .333 3 3s.333 3 3 3 3-.333 3-3c0-2.533.389-3 2.5-3 2.111 0 2.5.467 2.5 3 0 2.667.333 3 3 3s3-.333 3-3-.333-3-3-3c-2.533 0-3-.389-3-2.5 0-2.111.467-2.5 3-2.5 2.667 0 3-.333 3-3s-.333-3-3-3-3-.333-3-3 .333-3 3-3 3-.333 3-3-.333-3-3-3c-2.533 0-3-.389-3-2.5 0-2.111.467-2.5 3-2.5 2.667 0 3-.333 3-3s-.333-3-3-3-3-.333-3-3 .333-3 3-3c2.533 0 3-.389 3-2.5 0-2.111-.467-2.5-3-2.5-2.667 0-3-.333-3-3s.333-3 3-3 3-.333 3-3-.333-3-3-3c-2.533 0-3-.389-3-2.5 0-2.111.467-2.5 3-2.5 2.667 0 3-.333 3-3s-.333-3-3-3-3-.333-3-3 .333-3 3-3c2.533 0 3-.389 3-2.5 0-2.111-.467-2.5-3-2.5-2.667 0-3-.333-3-3s.333-3 3-3 3-.333 3-3-.333-3-3-3c-2.533 0-3-.389-3-2.5 0-2.111.467-2.5 3-2.5 2.667 0 3-.333 3-3s-.333-3-3-3-3-.333-3-3 .333-3 3-3 3-.333 3-3-.333-3-3-3c-2.533 0-3-.389-3-2.5 0-2.111.467-2.5 3-2.5 2.667 0 3-.333 3-3s-.333-3-3-3-3 .333-3 3M28 70.5c0 2-.5 2.5-2.5 2.5-2.111 0-2.5.467-2.5 3 0 2.511.396 3 2.434 3 1.911 0 2.501-.59 2.75-2.75.248-2.16.906-2.818 3.066-3.066 2.16-.249 2.75-.839 2.75-2.75C34 68.396 33.511 68 31 68c-2.533 0-3 .389-3 2.5m23 0c0 2.111.467 2.5 3 2.5s3-.389 3-2.5c0-2.111-.467-2.5-3-2.5s-3 .389-3 2.5m23 0c0 2.111.467 2.5 3 2.5s3-.389 3-2.5c0-2.111-.467-2.5-3-2.5s-3 .389-3 2.5m23 0c0 2 .5 2.5 2.5 2.5s2.5-.5 2.5-2.5-.5-2.5-2.5-2.5-2.5.5-2.5 2.5M.232 76c0 1.925.206 2.713.457 1.75.252-.963.252-2.537 0-3.5-.251-.963-.457-.175-.457 1.75M216 76c0 2.667-.333 3-3 3s-3 .333-3 3c0 2.533-.389 3-2.5 3-2.111 0-2.5-.467-2.5-3 0-2.667-.333-3-3-3s-3 .333-3 3-.333 3-3 3-3 .333-3 3 .333 3 3 3c2.533 0 3 .389 3 2.5 0 2.111-.467 2.5-3 2.5-2.667 0-3 .333-3 3 0 2.533-.389 3-2.5 3-2.111 0-2.5.467-2.5 3s.389 3 2.5 3c2 0 2.5.5 2.5 2.5s-.5 2.5-2.5 2.5c-2.111 0-2.5.467-2.5 3 0 2.667-.333 3-3 3s-3 .333-3 3 .333 3 3 3c2.533 0 3 .389 3 2.5 0 2.111-.467 2.5-3 2.5-2.667 0-3 .333-3 3s-.333 3-3 3-3 .333-3 3 .333 3 3 3c2.533 0 3 .389 3 2.5 0 2.111.467 2.5 3 2.5 2.667 0 3 .333 3 3 0 2.533.389 3 2.5 3 2.111 0 2.5.467 2.5 3 0 2.667.333 3 3 3 2.533 0 3 .389 3 2.5 0 2.111-.467 2.5-3 2.5-2.667 0-3 .333-3 3 0 2.533-.389 3-2.5 3-2.111 0-2.5.467-2.5 3 0 2.667-.333 3-3 3s-3 .333-3 3 .333 3 3 3c2.533 0 3 .389 3 2.5 0 2 .5 2.5 2.5 2.5s2.5-.5 2.5-2.5c0-2.111.467-2.5 3-2.5s3 .389 3 2.5c0 2.111.467 2.5 3 2.5s3-.389 3-2.5c0-2.111-.467-2.5-3-2.5-2.667 0-3-.333-3-3s.333-3 3-3 3-.333 3-3c0-2.533.389-3 2.5-3 2.111 0 2.5.467 2.5 3 0 2.667.333 3 3 3s3 .333 3 3 .333 3 3 3c2.533 0 3 .389 3 2.5 0 2.111.467 2.5 3 2.5s3-.389 3-2.5c0-2 .5-2.5 2.5-2.5 2.111 0 2.5-.467 2.5-3s-.389-3-2.5-3c-2.111 0-2.5-.467-2.5-3s.389-3 2.5-3c2.111 0 2.5-.467 2.5-3s-.389-3-2.5-3c-2 0-2.5-.5-2.5-2.5s.5-2.5 2.5-2.5c2.111 0 2.5-.467 2.5-3s-.389-3-2.5-3c-2.111 0-2.5-.467-2.5-3s.389-3 2.5-3c2 0 2.5-.5 2.5-2.5s-.5-2.5-2.5-2.5c-2.111 0-2.5-.467-2.5-3s.389-3 2.5-3c2.111 0 2.5-.467 2.5-3s-.389-3-2.5-3c-2 0-2.5-.5-2.5-2.5s.5-2.5 2.5-2.5c2.111 0 2.5-.467 2.5-3s-.389-3-2.5-3c-2.111 0-2.5-.467-2.5-3s.389-3 2.5-3c2 0 2.5-.5 2.5-2.5s-.5-2.5-2.5-2.5c-2.111 0-2.5-.467-2.5-3s.389-3 2.5-3c2.111 0 2.5-.467 2.5-3s-.389-3-2.5-3c-2 0-2.5-.5-2.5-2.5s.5-2.5 2.5-2.5c2.111 0 2.5-.467 2.5-3s-.389-3-2.5-3c-2.111 0-2.5-.467-2.5-3s.389-3 2.5-3c2.111 0 2.5-.467 2.5-3s-.389-3-2.5-3c-2.111 0-2.5.467-2.5 3 0 2.667-.333 3-3 3s-3-.333-3-3-.333-3-3-3-3 .333-3 3m-57 4.427c0 .784-.787 1.632-1.75 1.884-.963.251.313.509 2.833.573 5.023.127 6.055-.362 5.241-2.482-.723-1.884-6.324-1.862-6.324.025M216 82c0 2.667-.333 3-3 3-1.923 0-3 .509-3 1.418 0 2.94 1.292 4.582 3.607 4.582 1.868 0 2.393.533 2.393 2.434 0 1.911-.59 2.501-2.75 2.75-2.178.25-2.753.836-2.764 2.816-.011 1.976-.587 2.566-2.75 2.816-2.455.284-2.736.002-2.736-2.75 0-2.604.377-3.066 2.5-3.066 2 0 2.5-.5 2.5-2.5s-.5-2.5-2.5-2.5c-2.111 0-2.5-.467-2.5-3 0-2.667-.333-3-3-3s-3 .333-3 3 .333 3 3 3c2.533 0 3 .389 3 2.5 0 2.111-.467 2.5-3 2.5-2.667 0-3 .333-3 3s-.333 3-3 3-3 .333-3 3 .333 3 3 3c2.533 0 3 .389 3 2.5 0 2.111-.467 2.5-3 2.5-2.667 0-3 .333-3 3 0 2.533-.389 3-2.5 3-2.111 0-2.5.467-2.5 3s.389 3 2.5 3c2 0 2.5.5 2.5 2.5s-.5 2.5-2.5 2.5c-2.111 0-2.5.467-2.5 3 0 2.667-.333 3-3 3s-3 .333-3 3 .333 3 3 3c2.533 0 3 .389 3 2.5 0 2 .5 2.5 2.5 2.5 2.111 0 2.5.467 2.5 3 0 2.667.333 3 3 3s3 .333 3 3 .333 3 3 3c2.533 0 3 .389 3 2.5 0 2.111-.467 2.5-3 2.5-2.667 0-3 .333-3 3s-.333 3-3 3-3 .333-3 3c0 2.533-.389 3-2.5 3-2.111 0-2.5.467-2.5 3s.389 3 2.5 3c2.111 0 2.5-.467 2.5-3 0-2.667.333-3 3-3s3-.333 3-3 .333-3 3-3 3-.333 3-3c0-2.533.389-3 2.5-3 2 0 2.5-.5 2.5-2.5 0-2.111.467-2.5 3-2.5s3 .389 3 2.5c0 1.97-.507 2.5-2.393 2.5-2.315 0-3.607 1.642-3.607 4.582 0 .909 1.077 1.418 3 1.418 2.667 0 3 .333 3 3s.333 3 3 3 3 .333 3 3 .333 3 3 3 3-.333 3-3-.333-3-3-3-3-.333-3-3c0-2.681.326-3 3.066-3 2.756 0 3.035-.279 2.75-2.75-.248-2.16-.906-2.818-3.066-3.066-2.16-.249-2.75-.839-2.75-2.75 0-2.038.489-2.434 3-2.434 2.667 0 3-.333 3-3s-.333-3-3-3-3-.333-3-3 .333-3 3-3c2.533 0 3-.389 3-2.5 0-2.111-.467-2.5-3-2.5-2.667 0-3-.333-3-3s.333-3 3-3 3-.333 3-3-.333-3-3-3c-2.533 0-3-.389-3-2.5 0-2.111.467-2.5 3-2.5 2.667 0 3-.333 3-3s-.333-3-3-3-3-.333-3-3 .333-3 3-3c2.533 0 3-.389 3-2.5 0-2.111-.467-2.5-3-2.5-2.667 0-3-.333-3-3s.333-3 3-3 3-.333 3-3-.333-3-3-3c-2.511 0-3-.396-3-2.434 0-1.911.59-2.501 2.75-2.75 2.16-.248 2.818-.906 3.066-3.066.285-2.471.006-2.75-2.75-2.75-2.74 0-3.066-.319-3.066-3 0-2.667-.333-3-3-3s-3 .333-3 3M.232 88c0 1.925.206 2.713.457 1.75.252-.963.252-2.537 0-3.5-.251-.963-.457-.175-.457 1.75M216 88c0 2.667.333 3 3 3s3-.333 3-3-.333-3-3-3-3 .333-3 3m-89 12.213V108h15v-2.934c0-2.45-.449-2.985-2.727-3.25-2.158-.25-2.728-.838-2.728-2.816 0-1.978.57-2.566 2.728-2.816 4.002-.465 3.843-4.184-.179-4.184-2.414 0-2.818.339-2.384 2 .441 1.684.031 2-2.593 2-2.797 0-3.117.308-3.117 3 0 2.667.333 3 3 3 2.533 0 3 .389 3 2.5 0 2.111-.467 2.5-3 2.5s-3-.389-3-2.5c0-1.556-.567-2.5-1.5-2.5-1 0-1.5-1-1.5-3s.5-3 1.5-3c.825 0 1.5-.872 1.5-1.938 0-1.321-.636-1.89-2-1.787-1.816.137-2 .867-2 7.938m20-.213v8l4.25-.079c2.338-.043 3.753-.284 3.145-.535-.607-.251-.892-1.565-.633-2.921.419-2.194.128-2.465-2.645-2.465-2.797 0-3.117-.308-3.117-3 0-2.667.333-3 3-3 2.547 0 3 .384 3 2.542 0 1.398.56 3.142 1.244 3.875 1.014 1.084 1.664.302 3.5-4.213 1.241-3.049 2.256-5.692 2.256-5.874 0-.181-3.15-.33-7-.33h-7v8m-56-5.5c0 1 1 1.5 3 1.5 1.65 0 3-.45 3-1s1.125-1 2.5-1 2.5.45 2.5 1-1.125 1-2.5 1c-2.111 0-2.5.467-2.5 3 0 2.667-.333 3-3 3s-3-.333-3-3c0-2-.5-3-1.5-3S88 97 88 99s.5 3 1.5 3c2.171 0 1.948 4.736-.25 5.311-.963.251 1.737.509 6 .573L103 108V93h-6c-4.667 0-6 .333-6 1.5m16.344 6.001-.155 7.499 8.155-.136c4.486-.075 7.143-.331 5.906-.57-1.597-.307-2.25-1.138-2.25-2.864 0-1.925-.519-2.43-2.5-2.43-2.111 0-2.5-.467-2.5-3 0-2.667-.333-3-3-3-1.65 0-3-.45-3-1s1.35-1 3-1 3 .45 3 1c0 1.536 3.957 1.186 5.643-.5 1.333-1.333.742-1.5-5.322-1.499l-6.821.001-.156 7.499m46.294-6.001c.317.825 1.653 1.5 2.969 1.5 1.46 0 2.393-.585 2.393-1.5 0-.996-.997-1.5-2.969-1.5-2.228 0-2.825.374-2.393 1.5m-102.55 1c-.039 1.1.213 4.362.56 7.25l.631 5.25H63V94l-4.75.07c-3.574.053-4.255.283-2.75.93 1.1.473 3.013.891 4.25.93 1.818.056 2.25.646 2.25 3.07 0 2.533-.389 3-2.5 3-2.111 0-2.5-.467-2.5-3 0-2.506-.398-3-2.417-3-1.329 0-2.643-.562-2.921-1.25-.277-.687-.536-.35-.574.75M68 101v7h15V94H68v7m3.75-5.284c-2.28.346-2.75.918-2.75 3.35 0 2.463.401 2.934 2.5 2.934 2 0 2.5.5 2.5 2.5 0 2.111.467 2.5 3 2.5s3-.389 3-2.5c0-1.375.45-2.5 1-2.5s1-1.302 1-2.893c0-3.942-2.076-4.629-10.25-3.391M.232 99c0 1.925.206 2.713.457 1.75.252-.963.252-2.537 0-3.5-.251-.963-.457-.175-.457 1.75M23 99c0 2.533.389 3 2.5 3 2.111 0 2.5-.467 2.5-3s-.389-3-2.5-3c-2.111 0-2.5.467-2.5 3m51 0c0 2.667.333 3 3 3s3-.333 3-3-.333-3-3-3-3 .333-3 3m45 0c0 1.935.508 3 1.43 3 .787 0 1.626 1.013 1.864 2.25.239 1.237.495-.112.57-3 .12-4.629-.101-5.25-1.864-5.25-1.556 0-2 .667-2 3m97 0c0 2.667-.333 3-3 3s-3 .333-3 3c0 2.533-.389 3-2.5 3-2.111 0-2.5-.467-2.5-3 0-2.667-.333-3-3-3s-3 .333-3 3 .333 3 3 3c2.533 0 3 .389 3 2.5 0 2.111-.467 2.5-3 2.5-2.667 0-3 .333-3 3s-.333 3-3 3-3 .333-3 3 .333 3 3 3c2.533 0 3 .389 3 2.5 0 2.111-.467 2.5-3 2.5-2.667 0-3 .333-3 3 0 2.533-.389 3-2.5 3-2.111 0-2.5.467-2.5 3s.389 3 2.5 3c2 0 2.5.5 2.5 2.5 0 2.111.467 2.5 3 2.5 2.667 0 3 .333 3 3s.333 3 3 3c2.681 0 3 .326 3 3.066 0 2.752.281 3.034 2.736 2.75 2.163-.25 2.739-.84 2.75-2.816.011-1.98.586-2.566 2.764-2.816 2.471-.285 2.75-.006 2.75 2.75 0 2.74.319 3.066 3 3.066 2.667 0 3-.333 3-3s-.333-3-3-3-3-.333-3-3 .333-3 3-3c2.533 0 3-.389 3-2.5 0-2.111-.467-2.5-3-2.5-2.667 0-3-.333-3-3s.333-3 3-3 3-.333 3-3-.333-3-3-3c-2.533 0-3-.389-3-2.5 0-2.111.467-2.5 3-2.5 2.667 0 3-.333 3-3s-.333-3-3-3-3-.333-3-3 .333-3 3-3c2.533 0 3-.389 3-2.5 0-2.111-.467-2.5-3-2.5-2.667 0-3-.333-3-3s.333-3 3-3 3-.333 3-3-.333-3-3-3-3 .333-3 3m-163 5.5c0 1.833.533 2.5 2 2.5s2-.667 2-2.5-.533-2.5-2-2.5-2 .667-2 2.5m43.755 0c-.419 2.196-.129 2.5 2.384 2.5 2.385 0 2.861-.416 2.861-2.5 0-1.967-.508-2.5-2.383-2.5-1.749 0-2.511.666-2.862 2.5m11.245 0c0 2.111.467 2.5 3 2.5s3-.389 3-2.5c0-2.111-.467-2.5-3-2.5s-3 .389-3 2.5m-107.805 6c.02 1.65.244 2.204.498 1.231.254-.973.237-2.323-.037-3-.274-.677-.481.119-.461 1.769m210.185-1.048c-.826 2.153.424 3.548 3.179 3.548 1.937 0 2.441-.516 2.441-2.5 0-2.008-.498-2.5-2.531-2.5-1.393 0-2.783.653-3.089 1.452M53.116 114.32c.09 1.691.219 1.788.573.43.786-3.007 3.311-2.053 3.311 1.25 0 2-.5 3-1.5 3s-1.5 1-1.5 3 .5 3 1.5 3 1.5-1 1.5-3c0-2.533.389-3 2.5-3 2.111 0 2.5.467 2.5 3s-.389 3-2.5 3c-1.375 0-2.5.45-2.5 1s1.35 1 3 1h3l-.008-7.25-.008-7.25-4.992-.18c-4.55-.165-4.982.012-4.876 2m14.885 5.43L68 127h3c1.65 0 3-.45 3-1s1.35-1 3-1c2.667 0 3-.333 3-3s-.333-3-3-3c-2.681 0-3-.326-3-3.066 0-2.756.279-3.035 2.75-2.75 2.16.248 2.818.906 3.066 3.066.174 1.513.737 2.75 1.25 2.75 1.644 0 .998 5.231-.816 6.608-1.621 1.23-1.584 1.331.5 1.36 2.132.03 2.25-.353 2.25-7.317v-7.348l-7.499.098-7.499.099-.001 7.25m20-6.531c-.001.395.674.459 1.499.143 1.135-.436 1.5.18 1.5 2.531 0 2.095-.489 3.107-1.5 3.107-1 0-1.5 1-1.5 3s.5 3 1.5 3c.825 0 1.5.45 1.5 1s1.35 1 3 1 3-.398 3-.883c0-.486 1.105-1.095 2.455-1.353 1.684-.322 2.59.034 2.884 1.133.236.882.481-1.842.545-6.053l.116-7.655-7.499.155c-4.124.086-7.499.479-7.5.875m19.822-.375c-.591 2.198-.181 14.154.486 14.155.445 0 .531-.449.191-.999-.361-.583.656-1 2.441-1 2.732 0 3.059-.32 3.059-3 0-2.511.396-3 2.434-3 1.911 0 2.501-.59 2.75-2.75.218-1.901.856-2.707 2.066-2.611.963.076 1.75-.149 1.749-.5-.001-.848-14.948-1.138-15.176-.295m19.178 6.906c-.001 6.584.183 7.25 1.999 7.25 1.1 0 2-.45 2-1s1.136-1 2.525-1c2.006 0 2.648-.617 3.125-3 .465-2.323 1.136-3 2.975-3 1.972 0 2.375-.509 2.375-3 0-3.252-.078-3.276-10.749-3.436l-4.25-.064v7.25m19.999.167c0 4.079.298 7.118.662 6.754.364-.364.603-2.239.531-4.167-.089-2.366.313-3.504 1.24-3.504.992 0 3.567-4.619 3.567-6.399 0-.056-1.35-.101-3-.101h-3v7.417M97 116c0 2.667-.333 3-3 3s-3 .333-3 3 .333 3 3 3 3-.333 3-3c0-2.533.389-3 2.5-3 2.111 0 2.5-.467 2.5-3s-.389-3-2.5-3c-2.111 0-2.5.467-2.5 3m11 0c0 2.667.333 3 3 3s3-.333 3-3-.333-3-3-3-3 .333-3 3m23-.066c0 2.059-.493 3.066-1.5 3.066-1 0-1.5 1-1.5 3s.5 3 1.5 3 1.5-1 1.5-3c0-2.681.326-3 3.066-3 2.756 0 3.035-.279 2.75-2.75-.248-2.16-.906-2.818-3.066-3.066-2.471-.285-2.75-.006-2.75 2.75m74 .066c0 2.667-.333 3-3 3s-3 .333-3 3 .333 3 3 3c2.533 0 3 .389 3 2.5 0 2.111-.467 2.5-3 2.5-2.667 0-3 .333-3 3s-.333 3-3 3-3 .333-3 3 .333 3 3 3c2.533 0 3 .389 3 2.5 0 2.111.467 2.5 3 2.5 2.667 0 3 .333 3 3 0 2.533.389 3 2.5 3 2.111 0 2.5-.467 2.5-3s-.389-3-2.5-3c-2 0-2.5-.5-2.5-2.5s.5-2.5 2.5-2.5c2.111 0 2.5-.467 2.5-3 0-2.667.333-3 3-3s3-.333 3-3c0-2.541-.386-3-2.525-3-2.006 0-2.648.617-3.125 3-.465 2.323-1.136 3-2.975 3-1.972 0-2.375-.509-2.375-3 0-2.533.389-3 2.5-3 2 0 2.5-.5 2.5-2.5s-.5-2.5-2.5-2.5c-2.111 0-2.5-.467-2.5-3 0-2.491.403-3 2.375-3 1.839 0 2.51.677 2.975 3 .477 2.383 1.119 3 3.125 3 2.139 0 2.525-.459 2.525-3 0-2.667-.333-3-3-3s-3-.333-3-3c0-2.533-.389-3-2.5-3-2.111 0-2.5.467-2.5 3m-83 1c0 1.149-.667 2-1.566 2-2.252 0-1.497 5.376.816 5.815 1.48.281 1.75-.45 1.75-4.742 0-2.79-.225-5.073-.5-5.073s-.5.9-.5 2M.232 122c0 1.925.206 2.713.457 1.75.252-.963.252-2.537 0-3.5-.251-.963-.457-.175-.457 1.75M23 122c0 2.533.389 3 2.5 3 2.111 0 2.5-.467 2.5-3s-.389-3-2.5-3c-2.111 0-2.5.467-2.5 3m46 0c0 2.533.389 3 2.5 3 2.111 0 2.5-.467 2.5-3s-.389-3-2.5-3c-2.111 0-2.5.467-2.5 3m44.5 4c-.369.596.843 1 3 1s3.369-.404 3-1c-.34-.55-1.69-1-3-1s-2.66.45-3 1m23 0c-.361.583.656 1 2.441 1 1.682 0 3.059-.45 3.059-1s-1.098-1-2.441-1c-1.343 0-2.719.45-3.059 1M.232 133c0 1.925.206 2.713.457 1.75.252-.963.252-2.537 0-3.5-.251-.963-.457-.175-.457 1.75M23 133c0 2.533.389 3 2.5 3 2.111 0 2.5-.467 2.5-3s-.389-3-2.5-3c-2.111 0-2.5.467-2.5 3m32.64 2.25c.724 4.634 1.683 5.711 5.11 5.735 2.035.014 2.25-.462 2.25-4.985v-5h-8.024l.664 4.25m12.36.633c0 5.608.754 6.08 9.75 6.103L83 142v-11H68v4.883m20-2.383c0 1.556.567 2.5 1.5 2.5 2.227 0 2.003 5.708-.25 6.359-.963.278.388.26 3-.04 3.15-.362 4.75-.171 4.75.567 0 .613 1.35 1.114 3 1.114h3v-13h-7.5c-7.333 0-7.5.056-7.5 2.5m19.302 1.253c-.109 2.061.024 5.21.295 6.997.487 3.209.559 3.248 5.698 3.114 2.863-.075 4.192-.331 2.955-.57-1.237-.238-2.25-.852-2.25-1.364 0-.511-1.35-.93-3-.93-2.667 0-3-.333-3-3s.333-3 3-3 3 .333 3 3c0 2.533.389 3 2.5 3 2.111 0 2.5-.467 2.5-3s-.389-3-2.5-3c-1.833 0-2.5-.533-2.5-2 0-1.541.667-2 2.906-2 2.343 0 2.812.361 2.42 1.862-.336 1.284.159 2.032 1.593 2.407 1.755.459 2.081.089 2.081-2.363V131l-7.75.003-7.75.003-.198 3.747M127 138.402v7.402l6.061.703c3.334.387 6.334.431 6.667.098.333-.333-.32-.605-1.45-.605-1.344 0-2.008-.606-1.917-1.75.096-1.21-.71-1.848-2.611-2.066-1.964-.226-2.75.131-2.75 1.25 0 .861-.675 1.566-1.5 1.566s-1.5-.675-1.5-1.5.675-1.5 1.5-1.5c1 0 1.5-1 1.5-3s-.5-3-1.5-3c-.833 0-1.5-.889-1.5-2s.667-2 1.5-2 1.5.889 1.5 2c0 1.556.667 2 3 2 2.664 0 3 .335 3 2.989 0 2.576.345 2.96 2.5 2.782 2.018-.167 2.5-.744 2.5-2.989 0-2.264-.443-2.782-2.383-2.782-1.521 0-2.568-.705-2.893-1.946-.424-1.621.099-2.01 3.134-2.332 2.003-.212-.071-.461-4.608-.554L127 131v7.402M57 134c0 1.467.667 2 2.5 2s2.5-.533 2.5-2-.667-2-2.5-2-2.5.533-2.5 2m12 0c0 1.467.667 2 2.5 2 2 0 2.5.5 2.5 2.5 0 2.111.467 2.5 3 2.5s3-.389 3-2.5c0-1.375.45-2.5 1-2.5s1-.9 1-2-.633-2-1.406-2c-.914 0-1.224.7-.884 2 .441 1.684.031 2-2.593 2-2.45 0-3.117-.428-3.117-2 0-1.467-.667-2-2.5-2s-2.5.533-2.5 2m22 0c0 1.556.667 2 3 2 2.667 0 3 .333 3 3 0 2.533.389 3 2.5 3 2.111 0 2.5-.467 2.5-3s-.389-3-2.5-3c-1.833 0-2.5-.533-2.5-2 0-1.556-.667-2-3-2s-3 .444-3 2m-45 4.941c0 1.618.45 3.219 1 3.559.595.368 1-.823 1-2.941 0-1.957-.45-3.559-1-3.559s-1 1.323-1 2.941M199 139c0 2.667.333 3 3 3s3-.333 3-3-.333-3-3-3-3 .333-3 3m-78.307 2.7c-2.242.581-1.818 3.652.568 4.112 1.288.248 1.739-.333 1.739-2.239 0-1.415-.112-2.521-.25-2.457-.138.064-1.063.327-2.057.584M.195 144.5c.02 1.65.244 2.204.498 1.231.254-.973.237-2.323-.037-3-.274-.677-.481.119-.461 1.769m22.805 0c0 2 .5 2.5 2.5 2.5s2.5-.5 2.5-2.5-.5-2.5-2.5-2.5-2.5.5-2.5 2.5m187.38-1.048c-.826 2.153.424 3.548 3.179 3.548 1.937 0 2.441-.516 2.441-2.5 0-2.008-.498-2.5-2.531-2.5-1.393 0-2.783.653-3.089 1.452M48 146.948c0 .644-.45.892-1 .552-.583-.361-1 .656-1 2.441 0 2.56.391 3.059 2.393 3.059 3.187 0 3.807-2.034 1.492-4.893-1.037-1.281-1.885-1.802-1.885-1.159m103.131 2.105c-1.535 4.406-1.446 4.842.869 4.237 2.093-.548 2.665-3.693 1.116-6.136-.623-.983-1.158-.471-1.985 1.899M55 152c1.375.44 3.737.845 5.25.9 2.367.086 2.75.518 2.75 3.1 0 2.667-.333 3-3 3s-3-.333-3-3-.333-3-3-3-3 .333-3 3c0 2.533-.389 3-2.5 3-2 0-2.5.5-2.5 2.5s.5 2.5 2.5 2.5c2.111 0 2.5.467 2.5 3s-.389 3-2.5 3c-2.111 0-2.5.467-2.5 3s.389 3 2.5 3c2.111 0 2.5-.467 2.5-3 0-2.667.333-3 3-3s3 .333 3 3 .333 3 3 3 3-.333 3-3c0-2.533.389-3 2.5-3 2.111 0 2.5.467 2.5 3 0 2.667.333 3 3 3s3-.333 3-3 .333-3 3-3 3 .333 3 3-.333 3-3 3c-2 0-3 .5-3 1.5s-1 1.5-3 1.5-3-.5-3-1.5c0-.933-.944-1.5-2.5-1.5s-2.5.567-2.5 1.5c0 1-1 1.5-3 1.5s-3-.5-3-1.5-1-1.5-3-1.5c-1.922 0-3 .509-3 1.417 0 .779-.562 1.643-1.25 1.921-.687.277 22.517.54 51.566.583 34.645.052 53.481-.277 54.75-.956 2.608-1.396 2.556-3.941-.066-3.255-1.1.288-2 1.146-2 1.907 0 .87-1.112 1.383-3 1.383-2 0-3-.5-3-1.5s-1-1.5-3-1.5-3 .5-3 1.5c0 .996-.997 1.5-2.969 1.5-2.228 0-2.825-.374-2.393-1.5.317-.825 1.653-1.5 2.969-1.5 1.992 0 2.393-.502 2.393-3 0-2.64.346-3 2.883-3 2.025 0 3.037-.585 3.397-1.963.596-2.28-.842-3.635-4.03-3.798-1.849-.094-2.25.409-2.25 2.823 0 2.426-.414 2.938-2.375 2.938-1.839 0-2.51-.677-2.975-3-.477-2.383-1.119-3-3.125-3-2.027 0-2.525-.493-2.525-2.5 0-2.111-.467-2.5-3-2.5-2 0-3-.5-3-1.5 0-1.162-1.183-1.466-5.25-1.35-2.909.083-4.016.336-2.483.568 3.302.499 2.656 2.282-.826 2.282-1.937 0-2.441.516-2.441 2.5 0 2.111-.467 2.5-3 2.5s-3-.389-3-2.5c0-2.111-.467-2.5-3-2.5s-3 .389-3 2.5c0 2-.5 2.5-2.5 2.5s-2.5-.5-2.5-2.5.5-2.5 2.5-2.5c1.556 0 2.5-.567 2.5-1.5 0-1 1-1.5 3-1.5s3 .5 3 1.5c0 1.008 1.008 1.5 3.073 1.5 2.388 0 2.999-.39 2.74-1.75-.294-1.536-2.966-1.963-21.824-3.491-11.819-.957-23.149-1.519-25.179-1.248-2.029.272-3.968.042-4.309-.509-.34-.551-2.73-.957-5.31-.902-3.841.081-4.238.244-2.191.9M.232 156c0 1.925.206 2.713.457 1.75.252-.963.252-2.537 0-3.5-.251-.963-.457-.175-.457 1.75M23 156c0 2.533.389 3 2.5 3 2.111 0 2.5-.467 2.5-3s-.389-3-2.5-3c-2.111 0-2.5.467-2.5 3m45 0c0 2.533-.389 3-2.5 3-2 0-2.5.5-2.5 2.5 0 2.111-.467 2.5-3 2.5s-3-.389-3-2.5c0-2.111-.467-2.5-3-2.5s-3 .389-3 2.5c0 2.111.467 2.5 3 2.5 2.667 0 3 .333 3 3s.333 3 3 3 3-.333 3-3c0-2.533.389-3 2.5-3 2.111 0 2.5.467 2.5 3 0 2.667.333 3 3 3s3-.333 3-3 .333-3 3-3 3 .333 3 3c0 2.533.389 3 2.5 3 2.111 0 2.5.467 2.5 3 0 2.667.333 3 3 3 2 0 3 .5 3 1.5s1 1.5 3 1.5 3-.5 3-1.5c0-.933.944-1.5 2.5-1.5s2.5.567 2.5 1.5c0 1 1 1.5 3 1.5s3-.5 3-1.5 1-1.5 3-1.5 3 .5 3 1.5c0 .996.997 1.5 2.969 1.5 2.228 0 2.825-.374 2.393-1.5-.317-.825-1.653-1.5-2.969-1.5-1.992 0-2.393-.502-2.393-3 0-2.533.389-3 2.5-3 2.111 0 2.5.467 2.5 3 0 2.667.333 3 3 3 2 0 3 .5 3 1.5s1 1.5 3 1.5 3-.5 3-1.5 1-1.5 3-1.5c2.667 0 3-.333 3-3s-.333-3-3-3-3-.333-3-3-.333-3-3-3c-2.533 0-3-.389-3-2.5 0-2.111-.467-2.5-3-2.5s-3 .389-3 2.5c0 2-.5 2.5-2.5 2.5-2.111 0-2.5.467-2.5 3 0 2.667-.333 3-3 3s-3-.333-3-3-.333-3-3-3-3 .333-3 3c0 2.533-.389 3-2.5 3-2.111 0-2.5-.467-2.5-3 0-2.667-.333-3-3-3-2.533 0-3-.389-3-2.5 0-2.111.467-2.5 3-2.5 2.333 0 3-.444 3-2s-.667-2-3-2-3 .444-3 2-.667 2-3 2c-2.533 0-3-.389-3-2.5 0-2.084-.476-2.5-2.861-2.5-2.513 0-2.803.304-2.384 2.5.427 2.234.147 2.5-2.638 2.5-2.797 0-3.117-.308-3.117-3 0-2.667-.333-3-3-3s-3 .333-3 3m61.5 2c2.779 1.194 6.262 1.194 7 0 .381-.617-1.224-.973-4.191-.93-3.607.053-4.309.285-2.809.93m8.137.696c-.35.351-.637 1.687-.637 2.971 0 1.822.548 2.333 2.5 2.333 1.375 0 2.5-.477 2.5-1.059s.45-.781 1-.441 1 .397 1 .127c0-.996-5.747-4.546-6.363-3.931M68 161.5c0 2.111.467 2.5 3 2.5s3-.389 3-2.5c0-2.111-.467-2.5-3-2.5s-3 .389-3 2.5m12 0c0 2 .5 2.5 2.5 2.5s2.5-.5 2.5-2.5-.5-2.5-2.5-2.5-2.5.5-2.5 2.5M.232 167c0 1.925.206 2.713.457 1.75.252-.963.252-2.537 0-3.5-.251-.963-.457-.175-.457 1.75m85.435-2.333c-.367.366-.667 1.716-.667 3 0 1.926.524 2.333 3 2.333 2.667 0 3 .333 3 3s.333 3 3 3 3-.333 3-3-.333-3-3-3-3-.333-3-3c0-2.476-.407-3-2.333-3-1.284 0-2.634.3-3 .667m34 0c-.367.366-.667 1.716-.667 3 0 1.926.524 2.333 3 2.333 2.667 0 3 .333 3 3s.333 3 3 3 3-.333 3-3-.333-3-3-3-3-.333-3-3c0-2.476-.407-3-2.333-3-1.284 0-2.634.3-3 .667M216 167c0 2.667.333 3 3 3s3-.333 3-3-.333-3-3-3-3 .333-3 3m-65.11 1.25c1.194 1.543 1.103 1.75-.768 1.75-1.691 0-2.122.609-2.122 3 0 2.67.332 3 3.016 3 2.744 0 2.995-.274 2.784-3.04-.127-1.672-1.139-3.81-2.249-4.75-1.91-1.62-1.945-1.618-.661.04M102 173c0 2.667.333 3 3 3s3-.333 3-3-.333-3-3-3-3 .333-3 3M.232 179c0 1.925.206 2.713.457 1.75.252-.963.252-2.537 0-3.5-.251-.963-.457-.175-.457 1.75m79.406-1.5c-.442 1.154.218 1.5 2.862 1.5s3.304-.346 2.862-1.5c-.317-.825-1.605-1.5-2.862-1.5-1.257 0-2.545.675-2.862 1.5M.232 190c0 1.925.206 2.713.457 1.75.252-.963.252-2.537 0-3.5-.251-.963-.457-.175-.457 1.75m50.268 2c.34.55 1.465 1 2.5 1s2.16-.45 2.5-1c.362-.585-.676-1-2.5-1-1.824 0-2.862.415-2.5 1m22-.089c2.526.991 29.074.849 30.083-.161.413-.412-6.637-.721-15.666-.687-9.042.035-15.518.416-14.417.848M108 192c0 .55-1.35 1-3 1-2.667 0-3 .333-3 3 0 2.533-.389 3-2.5 3-2.111 0-2.5-.467-2.5-3 0-2.667-.333-3-3-3s-3 .333-3 3-.333 3-3 3-3-.333-3-3c0-2.533-.389-3-2.5-3-2.111 0-2.5.467-2.5 3s.389 3 2.5 3c2 0 2.5.5 2.5 2.5 0 2.111.467 2.5 3 2.5s3-.389 3-2.5c0-2.111.467-2.5 3-2.5s3 .389 3 2.5c0 2 .5 2.5 2.5 2.5s2.5-.5 2.5-2.5c0-2.111.467-2.5 3-2.5s3 .389 3 2.5c0 2.111.467 2.5 3 2.5s3-.389 3-2.5c0-2 .5-2.5 2.5-2.5s2.5.5 2.5 2.5c0 2.111.467 2.5 3 2.5s3-.389 3-2.5c0-2.111.467-2.5 3-2.5 2.554 0 3 .382 3 2.566 0 2.21.382 2.523 2.75 2.25 1.978-.227 2.75-.878 2.75-2.316 0-1.438-.772-2.089-2.75-2.316-2.303-.265-2.75-.794-2.75-3.25 0-2.593.348-2.934 3-2.934 2.667 0 3 .333 3 3 0 2.533.389 3 2.5 3 2.111 0 2.5-.467 2.5-3 0-2.29.454-3 1.917-3 1.054 0 2.068.454 2.253 1.01.185.555.901.105 1.592-1 1.167-1.87 1.01-2.01-2.254-2.01-1.929 0-3.508.45-3.508 1s-1.125 1-2.5 1-2.5-.45-2.5-1-1.35-1-3-1-3 .45-3 1-1.35 1-3 1-3-.45-3-1-1.35-1-3-1-3 .45-3 1-1.125 1-2.5 1-2.5-.45-2.5-1-1.35-1-3-1-3 .45-3 1m-62 4c0 2.533.389 3 2.5 3 2.111 0 2.5-.467 2.5-3s-.389-3-2.5-3c-2.111 0-2.5.467-2.5 3m13.854-.854c-1.105 1.105-1.749 2.686-1.431 3.513.317.828.577 1.929.577 2.448 0 1.706 4.967 2.981 7.122 1.828 1.532-.82 1.92-1.9 1.684-4.684-.255-3.012-.778-3.744-3.124-4.367-2.161-.573-3.287-.279-4.828 1.262m12.784-.646c.317.825.753 1.5.969 1.5.216 0 .393-.675.393-1.5s-.436-1.5-.969-1.5c-.532 0-.709.675-.393 1.5M108 196c0 2.667.333 3 3 3s3-.333 3-3-.333-3-3-3-3 .333-3 3m11 0c0 2.667.333 3 3 3s3-.333 3-3-.333-3-3-3-3 .333-3 3m33.031-.537c-1.669 2.011-.539 6.195 2.048 7.579 1.593.853 2.602.742 4.488-.494 4.008-2.626 2.99-8.639-1.424-8.412-2.286.118-2.346.194-.44.564 4.312.836 3.69 7.3-.703 7.3-2.858 0-4.342-2.493-2.988-5.022 1.397-2.611.753-3.605-.981-1.515m-90.781.199c-.687.278-1.25 1.817-1.25 3.421 0 2.55.364 2.917 2.893 2.917 2.942 0 4.107-1.442 4.107-5.082 0-1.893-2.705-2.484-5.75-1.256m105.189 3.916c-.242.782-.65 2.097-.908 2.922-.344 1.102.32 1.5 2.5 1.5 2.462 0 2.969-.407 2.969-2.383 0-2.735-3.82-4.443-4.561-2.039M.195 201.5c.02 1.65.244 2.204.498 1.231.254-.973.237-2.323-.037-3-.274-.677-.481.119-.461 1.769m244.805 0c0 2 .5 2.5 2.5 2.5s2.5-.5 2.5-2.5-.5-2.5-2.5-2.5-2.5.5-2.5 2.5M51 207c0 2.667.333 3 3 3 3.448 0 3.943-1.837 1.171-4.345C52.438 203.181 51 203.645 51 207" fill="#1976D2" fill-rule="evenodd"/><path fill-opacity=".488" d="M192.5 47.366c-6.6 1.193-12.525 2.502-13.166 2.909-.642.407-3.961 7.911-7.377 16.676l-6.21 15.937-5.124.508c-4.789.474-94.854 2.656-108.182 2.62-7.493-.02-9.89 1.489-9.72 6.118.386 10.476 6.571 55.522 7.797 56.778 1.025 1.051 11.806 2.253 42.18 4.704 22.441 1.811 41.753 3.313 42.916 3.338 2.126.046 15.941 10.136 20.136 14.706 2.61 2.843 2.956 6.855.668 7.733-.87.334-25.07.607-53.777.607-45.623 0-52.476.196-54.418 1.557-4.972 3.482-1.134 9.79 5.319 8.743l3.326-.54-2.022 4.087c-1.744 3.525-1.86 4.579-.845 7.656C57.497 212.095 73 209.592 73 198.435c0-2.505-.603-4.691-1.5-5.435-.825-.685-1.5-1.64-1.5-2.122 0-.489 17.715-.878 39.985-.878h39.986l-1.982 3.25c-1.09 1.787-1.983 4.06-1.985 5.05-.007 3.42 3.125 7.856 6.562 9.292 2.961 1.237 3.898 1.241 6.803.027 7.082-2.959 8.753-10.132 3.701-15.887-2.842-3.237-2.872-3.375-.968-4.563 3.209-2.005 5.89-7.359 5.894-11.771.005-5.388-2.742-9.336-11.496-16.521-3.85-3.16-6.884-6.236-6.742-6.836 1.049-4.427 35.754-91.771 36.797-92.609.732-.588 5.068-1.627 9.637-2.31 11.965-1.789 15.632-2.925 16.862-5.223.838-1.566.722-2.592-.506-4.466-1.962-2.994-3.819-3-20.048-.067m-41.25 44.366-4.25.383V108h4.051c4.429 0 3.982.601 8.969-12.05l1.951-4.95-3.236.175c-1.779.096-5.147.347-7.485.557m-40.5.996-3.75.393V108h16V92l-4.25.168c-2.338.093-5.937.345-8 .56M127 100v8h16V92h-16v8m-54.75-6.268-4.25.383V108h15V93l-3.25.175a257.91 257.91 0 0 0-7.5.557M87 100.5v7.5h16V93H87v7.5m-35.894-1.25c.412 2.888.781 6.037.821 7C51.988 107.714 52.98 108 58 108h6V94H50.359l.747 5.25m1.903 15c.004 1.237.292 4.612.639 7.5l.631 5.25H64v-15h-5.5c-5.04 0-5.499.188-5.491 2.25M68 119.5v7.5h15v-15H68v7.5m19 0v7.5h16v-15H87v7.5m20 0v7.5h16v-15h-16v7.5m20 0v7.5h16v-15h-16v7.5m20 .167c0 4.216.216 7.451.48 7.187.263-.264 1.813-3.714 3.443-7.667l2.964-7.187H147v7.667M55.011 132.25c.006.688.29 2.938.631 5 .592 3.58.795 3.75 4.489 3.75H64v-10h-4.5c-2.939 0-4.496.434-4.489 1.25M68 136.5v5.5l3.75.011c2.063.006 5.438.29 7.5.631l3.75.62V131H68v5.5m19 .375c0 5.78.051 5.885 3.125 6.5 1.719.344 5.319.625 8 .625H103v-13H87v5.875M107 138c0 6.968.013 7 2.75 7.009 1.513.004 5.112.292 8 .639l5.25.631V131h-16v7m20 .393c0 8.403.192 8.607 8.068 8.607 4.692 0 4.971-.157 6.419-3.622.832-1.992 1.513-5.592 1.513-8V131h-16v7.393m-67.345 56.436c-2.171 2.399-2.1 5.458.174 7.516 2.546 2.305 5.771 2.064 7.614-.568 2.05-2.925 1.967-5.096-.272-7.122-2.399-2.171-5.458-2.1-7.516.174m92.916-.258c-3.402 3.403-.881 9.429 3.944 9.429 2.357 0 5.485-3.263 5.485-5.723 0-1.938-3.751-5.277-5.929-5.277-1.06 0-2.635.707-3.5 1.571m-91.525 1.873c-2.701 3.255 1.769 7.17 4.765 4.174 1.273-1.274 1.404-2.055.565-3.387-1.46-2.318-3.775-2.66-5.33-.787m93.154-.244c-1.694 1.694-1.49 4.475.382 5.193 2.515.965 3.28.734 4.381-1.324.78-1.457.648-2.315-.536-3.5-1.884-1.884-2.646-1.95-4.227-.369" fill="#1976D2" fill-rule="evenodd"/><path fill-opacity=".984" d="M193.636 47.577c-7.075 1.302-13.42 2.829-14.101 3.394-.681.565-4.043 8.227-7.473 17.028L165.827 84l-6.164.025c-3.389.014-30.425.667-60.079 1.452-45.002 1.191-54.162 1.673-55.402 2.913-1.314 1.313-1.096 4.745 1.882 29.704 2.382 19.951 3.818 28.749 4.902 30.03 1.345 1.588 6.47 2.191 41.534 4.883 22 1.69 41.35 3.286 43 3.547 3.486.553 20.396 13.431 22.245 16.942 1.572 2.983.675 5.394-2.446 6.581-1.373.521-25.214.923-54.829.923-50.783 0-52.432.06-53.435 1.934-2.314 4.324.251 7.066 6.609 7.066h4.501l-2.072 2.635c-6.936 8.817 5.539 20.844 13.432 12.951 3.651-3.651 4.191-7.316 1.739-11.793L69.166 190h81.979l-2.072 2.635c-3.065 3.895-2.725 8.867.85 12.442 1.747 1.747 3.98 2.923 5.55 2.923 7.462 0 12.414-7.451 9.148-13.767-.88-1.7-2.504-3.378-3.61-3.73-2.618-.83-2.544-1.873.239-3.396 3.2-1.75 5.795-5.606 6.438-9.57.922-5.686-2.648-11.449-11.262-18.178-5.901-4.609-7.388-6.286-6.973-7.859.29-1.1 8.544-22.475 18.342-47.5l17.815-45.5 12.152-2.092c6.684-1.151 12.847-2.669 13.696-3.373 1.982-1.645 1.97-4.464-.029-6.464-1.92-1.919-1.892-1.92-17.793 1.006M131.21 91.739l-5.289.368.289 8.197.29 8.196 8.25.29 8.25.291V91l-3.25.185a860.6 860.6 0 0 0-8.54.554m14.79 8.316v9.055l4.75-.305 4.75-.305 3.202-8c1.762-4.4 3.224-8.338 3.25-8.75.027-.412-3.552-.75-7.952-.75h-8v9.055M91.25 92.71l-4.25.405v15.966l8.25-.291 8.25-.29v-16l-4-.098c-2.2-.053-5.912.085-8.25.308M107 100.5v8.5h7.833c4.309 0 8.021-.185 8.25-.412.23-.227.27-4.052.091-8.5L122.848 92H107v8.5m-53.813-6.772-3.314.408.645 5.682c1.071 9.421.874 9.182 7.549 9.182H64V93l-3.75.16c-2.062.088-5.241.344-7.063.568M67 101v8h17V93H67v8m-14.497 15.75c1.411 10.714 1.114 10.25 6.576 10.25H64v-15H51.877l.626 4.75M67 119.5v7.5h17v-15H67v7.5m20 0v7.5h17v-15H87v7.5m20 0v7.5h16v-15h-16v7.5m19 0v7.5h17v-15h-17v7.5m20 0c0 9.616 1.643 9.866 5.009.763 1.37-3.706 2.641-7.081 2.824-7.5.184-.42-1.504-.763-3.75-.763H146v7.5m-91.097 11.25c-.294 2.273.353 8.847.927 9.422.368.37 2.358.982 4.42 1.361l3.75.69V130h-4.5c-2.475 0-4.544.338-4.597.75M67 135.824v5.904l4.64.636c2.551.35 6.398.636 8.547.636h3.908l-.297-6.25-.298-6.25-8.25-.29-8.25-.291v5.905m20 1.136V144l3.25.009c1.787.004 5.634.295 8.547.645l5.296.636-.296-7.395-.297-7.395-8.25-.29-8.25-.291v7.041m20 .383c0 8.565.066 8.619 10.5 8.644l6 .014-.155-7.751-.155-7.75-8.095-.29-8.095-.291v7.424m19.667-6.676c-.92.919-.845 15.114.083 15.643.412.235 3.548.732 6.967 1.105l6.218.677 1.532-3.668c.843-2.018 1.533-6.088 1.533-9.046V130h-7.833c-4.309 0-8.134.3-8.5.667m-68.224 64.78c-1.381 2.107-1.417 2.835-.26 5.25 1.138 2.373 1.952 2.803 5.306 2.803 3.408 0 4.096-.38 4.916-2.71.647-1.84.581-3.525-.205-5.25-1.624-3.564-7.446-3.62-9.757-.093m92.89.168c-1.535 2.342-1.56 2.891-.242 5.25 2.864 5.128 10.909 3.384 10.909-2.365 0-5.587-7.558-7.631-10.667-2.885M61 198.5c0 2.165.404 2.582 2.25 2.32 1.477-.21 2.25-1.007 2.25-2.32s-.773-2.11-2.25-2.32c-1.846-.262-2.25.155-2.25 2.32m92.594-.886c-.363.946-.243 2.137.267 2.647 1.548 1.548 4.639.366 4.639-1.775 0-2.578-3.979-3.285-4.906-.872" fill="#1976D2" fill-rule="evenodd"/></svg>