<svg xmlns="http://www.w3.org/2000/svg" width="256" height="256"><path fill-opacity=".016" d="M0 128.004v128.004l128.25-.254 128.25-.254.254-127.75L257.008 0H0v128.004m.485.496c0 70.4.119 99.053.265 63.672.146-35.38.146-92.98 0-128C.604 29.153.485 58.1.485 128.5" fill="#1976D2" fill-rule="evenodd"/><path fill-opacity=".135" d="M6.299 9.927C.026 13.815-2.171 23.97 2.088 29.385 5.747 34.037 8.94 35 20.702 35h10.802l12.563 75.337c13.656 81.882 13.102 79.617 20.314 83.04 3.063 1.453 11.319 1.623 78.77 1.621 69.76-.001 75.603-.131 78.778-1.75 9.922-5.059 10.45-18.143.958-23.748-3.286-1.94-5.445-2.008-72.503-2.276l-69.117-.276-.962-5.974-.962-5.974h76.264c45.061 0 77.272-.384 78.73-.938 3.186-1.212 7.364-5.733 8.135-8.805C243.85 139.766 256 52.234 256 47.796c0-4.052-.521-5.393-3.25-8.364-2.058-2.24-4.717-3.876-7.25-4.461-2.285-.527-43.087-.934-95.16-.947L59.181 34l-1.153-7.25c-1.482-9.321-2.505-11.874-6.164-15.383L48.873 8.5l-19.686-.279C11.016 7.964 9.254 8.096 6.299 9.927M64.007 62.75c.003.413.9 5.925 1.993 12.25s1.99 11.838 1.993 12.25c.004.412 9.232.75 20.507.75H109V62H86.5c-12.375 0-22.497.337-22.493.75M123 75v13H161.889l.305-13.002.306-13.002-19.75.002L123 62v13m54 0v13h45.841l.538-2.75c.296-1.513 1.021-6.35 1.611-10.75.591-4.4 1.293-9.013 1.561-10.25l.487-2.25H177v13M71.003 103.75c.003 1.726 2.556 17.625 3.533 22 .497 2.225.689 2.25 17.483 2.25H109v-26H90c-17.43 0-19 .145-18.997 1.75m52.217 11 .28 12.75 19.194.271 19.194.272.306-13.023.306-13.024-19.78.002-19.78.002.28 12.75m53.78.271v13.02l20.236-.27 20.235-.271 1.69-11.5c.93-6.325 1.723-12.062 1.764-12.75.058-.964-4.952-1.25-21.925-1.25h-22v13.021m-91.642 92.923c-14.864 3.591-20.68 21.31-10.788 32.866 4.383 5.121 10.614 7.619 17.382 6.969 12.455-1.197 20.984-14.353 17.043-26.293-3.145-9.532-14.147-15.834-23.637-13.542m120.142-.006c-11.678 2.832-18.821 14.373-15.583 25.178 2.439 8.142 11.278 14.84 19.583 14.84 10.525 0 20.466-9.972 20.494-20.557.009-3.28-2.038-8.586-4.69-12.158-4.12-5.549-13.212-8.902-19.804-7.303" fill="#1976D2" fill-rule="evenodd"/><path fill-opacity=".419" d="M7.5 9.861C2.55 12.918.736 15.658.299 20.74c-.303 3.512.098 5.568 1.527 7.84 3.146 5 7.475 6.42 19.575 6.42 5.83 0 10.607.337 10.617.75.011.413 5.596 34.138 12.412 74.947 8.705 52.11 12.935 75.112 14.21 77.271.999 1.691 3.656 3.965 5.904 5.053 3.962 1.918 6.374 1.978 78.522 1.957 70.96-.021 74.629-.111 78.618-1.921 8.256-3.749 10.168-13.974 3.893-20.822l-3.423-3.735-70.466-.27-70.467-.269-.667-4.731c-.368-2.601-.898-5.517-1.178-6.48-.483-1.656 3.596-1.75 75.807-1.752 70.681-.001 76.57-.13 79.746-1.75 6.893-3.514 6.785-3.099 14.189-54.433 3.754-26.023 6.836-48.89 6.85-50.815.013-1.925-.854-4.941-1.928-6.701C249.979 34.638 255.806 35 152.668 35H59.236l-1.706-9.477C54.591 9.199 52.551 7.998 27.782 8.004c-15.075.003-17.665.24-20.282 1.857M64.007 63.25c.003.688.9 6.425 1.993 12.75s1.99 11.612 1.993 11.75c.004.138 9.457.25 21.007.25h21V62H87c-17.737 0-22.998.286-22.993 1.25M123 75v13h40V62h-40v13m53 .018v13.018l23.75-.268 23.75-.268 1.685-11c.927-6.05 1.714-11.787 1.75-12.75.06-1.623-1.791-1.75-25.435-1.75H176v13.018M72.447 114.75l2.111 12.75 17.721.273 17.721.273V102H70.336l2.111 12.75M123 115v13h40v-26h-40v13m53 0v13h21c16.123 0 21.005-.29 21.019-1.25.011-.687.672-5.75 1.469-11.25s1.463-10.787 1.48-11.75c.03-1.616-1.694-1.75-22.468-1.75H176v13m-94.8 94.616c-4.519 2.303-10.036 8.995-10.808 13.109-1.858 9.905 2.439 18.891 10.922 22.841 2.852 1.328 6.311 2.416 7.686 2.419 11.016.018 21.003-9.969 20.985-20.985-.008-4.777-4.581-12.704-9.026-15.646-5.31-3.514-14.659-4.336-19.759-1.738m120.3-.14c-12.946 6.032-15.974 21.798-6.148 32.015 7.089 7.371 17.399 8.37 25.538 2.474 12.423-8.999 10.369-28.698-3.608-34.605-4.116-1.74-11.922-1.682-15.782.116" fill="#1976D2" fill-rule="evenodd"/><path fill-opacity=".976" d="M6.19 11.026c-6.246 3.808-7.707 12.505-3.086 18.379 3.312 4.21 5.76 4.97 17.868 5.548l11.471.547 12.26 74c6.743 40.7 12.937 75.466 13.765 77.257.829 1.791 2.974 4.152 4.769 5.246 3.183 1.94 5.149 1.989 79.763 1.979 59.192-.009 77.059-.294 78.97-1.261 3.643-1.844 7.031-7.446 7.026-11.619-.002-1.981-.912-5.092-2.022-6.912-3.869-6.347-1.912-6.19-77.335-6.19-56.35 0-68.516-.237-68.94-1.343-.284-.739-.834-3.889-1.223-7L78.77 154h77.164c84.773 0 81.337.245 84.579-6.024.922-1.785 4.378-22.772 8.568-52.048 6.981-48.771 7.012-49.078 5.221-52.678-.991-1.991-3.072-4.55-4.625-5.685-2.793-2.043-3.817-2.07-96.949-2.565l-94.126-.5-1.596-9c-2.851-16.076-3.59-16.501-28.66-16.496C11.207 9.007 9.2 9.19 6.19 11.026M63.502 64.25c.326 1.787 1.359 7.881 2.295 13.542.937 5.661 2.041 10.273 2.453 10.25.412-.023 9.975-.042 21.25-.042H110V61H62.909l.593 3.25M123 74.5V88h40V61h-40v13.5m53 0V88h24c13.2 0 24.012-.338 24.026-.75.014-.412.839-6.263 1.832-13.001.994-6.738 1.582-12.475 1.308-12.75-.275-.274-11.899-.499-25.833-.499H176v13.5M70.007 102.25c.003.688.9 6.425 1.993 12.75s1.99 11.838 1.993 12.25c.004.412 8.107.75 18.007.75h18v-27H90c-15.337 0-19.998.291-19.993 1.25M123 114.5V128h40v-27h-40v13.5m53 0V128h20.981c20.946 0 20.982-.004 21.471-2.25.457-2.104 3.548-23.251 3.548-24.28 0-.259-10.35-.47-23-.47h-23v13.5m-92.789 94.629C76.279 211.128 70 220.408 70 228.654c0 4.256 3.937 11.283 8.24 14.705 6.332 5.036 17.517 4.766 24.323-.587 5.427-4.269 8.071-15.317 5.373-22.457-3.434-9.089-14.553-14.12-24.725-11.186m119.426.336c-14.796 5.274-17.023 25.565-3.8 34.625 2.909 1.994 4.751 2.41 10.663 2.41 5.891 0 7.758-.419 10.626-2.384 10.547-7.227 11.719-22.777 2.336-31.015-5.56-4.882-12.671-6.186-19.825-3.636" fill="#1976D2" fill-rule="evenodd"/></svg>